<?xml version="1.0" encoding="UTF-8" standalone="no"?>
<!-- Created with Inkscape (http://www.inkscape.org/) -->

<svg
   xmlns:dc="http://purl.org/dc/elements/1.1/"
   xmlns:cc="http://creativecommons.org/ns#"
   xmlns:rdf="http://www.w3.org/1999/02/22-rdf-syntax-ns#"
   xmlns:svg="http://www.w3.org/2000/svg"
   xmlns="http://www.w3.org/2000/svg"
   xmlns:sodipodi="http://sodipodi.sourceforge.net/DTD/sodipodi-0.dtd"
   xmlns:inkscape="http://www.inkscape.org/namespaces/inkscape"
   width="330mm"
   height="140mm"
   viewBox="0 0 1169.2913 496.06295"
   id="svg2"
   version="1.1"
   inkscape:version="0.91 r13725"
   sodipodi:docname="ConcVSSeparationCartoon.svg">
  <defs
     id="defs4">
    <inkscape:path-effect
       effect="spiro"
       id="path-effect15619"
       is_visible="true" />
    <inkscape:path-effect
       effect="spiro"
       id="path-effect15615"
       is_visible="true" />
    <inkscape:path-effect
       effect="spiro"
       id="path-effect15611"
       is_visible="true" />
    <inkscape:path-effect
       effect="spiro"
       id="path-effect15607"
       is_visible="true" />
    <inkscape:path-effect
       is_visible="true"
       id="path-effect15603"
       effect="spiro" />
    <inkscape:path-effect
       is_visible="true"
       id="path-effect15599"
       effect="spiro" />
    <inkscape:path-effect
       is_visible="true"
       id="path-effect15595"
       effect="spiro" />
    <inkscape:path-effect
       is_visible="true"
       id="path-effect15591"
       effect="spiro" />
    <inkscape:path-effect
       is_visible="true"
       id="path-effect15587"
       effect="spiro" />
    <inkscape:path-effect
       is_visible="true"
       id="path-effect15583"
       effect="spiro" />
    <inkscape:path-effect
       is_visible="true"
       id="path-effect15579"
       effect="spiro" />
    <inkscape:path-effect
       is_visible="true"
       id="path-effect15575"
       effect="spiro" />
    <inkscape:path-effect
       effect="spiro"
       id="path-effect15571"
       is_visible="true" />
    <inkscape:path-effect
       effect="spiro"
       id="path-effect15563"
       is_visible="true" />
    <inkscape:path-effect
       effect="spiro"
       id="path-effect15559"
       is_visible="true" />
    <inkscape:path-effect
       effect="spiro"
       id="path-effect15555"
       is_visible="true" />
    <inkscape:path-effect
       effect="spiro"
       id="path-effect15056"
       is_visible="true" />
  </defs>
  <sodipodi:namedview
     id="base"
     pagecolor="#ffffff"
     bordercolor="#666666"
     borderopacity="1.0"
     inkscape:pageopacity="0.0"
     inkscape:pageshadow="2"
     inkscape:zoom="1"
     inkscape:cx="713.99196"
     inkscape:cy="313.47351"
     inkscape:document-units="px"
     inkscape:current-layer="layer5"
     showgrid="false"
     inkscape:window-width="2560"
     inkscape:window-height="1317"
     inkscape:window-x="0"
     inkscape:window-y="1"
     inkscape:window-maximized="1" />
  <metadata
     id="metadata7">
    <rdf:RDF>
      <cc:Work
         rdf:about="">
        <dc:format>image/svg+xml</dc:format>
        <dc:type
           rdf:resource="http://purl.org/dc/dcmitype/StillImage" />
        <dc:title></dc:title>
      </cc:Work>
    </rdf:RDF>
  </metadata>
  <g
     inkscape:label="Layer 1"
     inkscape:groupmode="layer"
     id="layer1"
     transform="translate(0,-556.29906)"
     style="display:inline" />
  <g
     inkscape:groupmode="layer"
     id="layer2"
     inkscape:label="Background"
     style="display:inline"
     transform="translate(0,-1275.5904)">
    <g
       transform="matrix(1.2500001,0,0,-1.2500001,47.855375,1742.7928)"
       id="g5397">
      <flowRoot
         xml:space="preserve"
         id="flowRoot16054"
         style="font-style:normal;font-variant:normal;font-weight:normal;font-stretch:normal;font-size:22.5px;line-height:125%;font-family:Arial;-inkscape-font-specification:'Arial, Normal';text-align:start;letter-spacing:0px;word-spacing:0px;writing-mode:lr-tb;text-anchor:start;fill:#000000;fill-opacity:1;stroke:none;stroke-width:1px;stroke-linecap:butt;stroke-linejoin:miter;stroke-opacity:1"
         transform="matrix(0.79999984,0,0,-0.79999984,-38.284297,1394.2341)"><flowRegion
           id="flowRegion16056"><rect
             id="rect16058"
             width="80"
             height="23"
             x="1096"
             y="763.65356" /></flowRegion><flowPara
           id="flowPara16060"></flowPara></flowRoot>    </g>
  </g>
  <g
     inkscape:groupmode="layer"
     id="layer3"
     inkscape:label="CartoonLines"
     style="display:inline"
     transform="translate(0,-1275.5904)">
    <path
       style="fill:none;fill-rule:evenodd;stroke:#000000;stroke-width:1px;stroke-linecap:butt;stroke-linejoin:miter;stroke-opacity:1"
       d=""
       id="path15561"
       inkscape:path-effect="#path-effect15563"
       inkscape:original-d="M 1437.4469,1104.9528 Z"
       inkscape:connector-curvature="0" />
  </g>
  <g
     inkscape:groupmode="layer"
     id="layer4"
     inkscape:label="Lines"
     style="display:inline"
     transform="translate(0,-1275.5904)" />
  <g
     inkscape:groupmode="layer"
     id="layer5"
     inkscape:label="CartoonLinesSmooth"
     style="display:inline"
     transform="translate(0,-1275.5904)">
    <g
       id="g16411"
       transform="translate(-46.313916,519.09922)">
      <text
         y="1205.4193"
         x="106.6143"
         id="text4231"
         style="font-variant:normal;font-weight:normal;font-size:22.50384903px;font-family:Helvetica;-inkscape-font-specification:Helvetica;writing-mode:lr-tb;display:inline;fill:#262626;fill-opacity:1;fill-rule:nonzero;stroke:none"
         transform="scale(0.99971008,1.0002902)">
        <tspan
           id="tspan4233"
           sodipodi:role="line"
           y="1205.4193"
           x="106.6143 195.25381 207.76595 290.14423 302.65634 385.03506 397.54721 479.9259 492.43808 574.81677 587.32892">01020304050</tspan>
        <tspan
           id="tspan4235"
           sodipodi:role="line"
           y="1232.2987"
           x="238.82346 253.83353 266.34567 278.85779 291.36993 298.86374 311.37585 317.63193 322.62781 335.13992 347.65207 353.90814 370.15591 375.15176 386.40369 392.65976 405.17191 417.68402 428.93597 441.44809 447.70419 453.96024">Separation Distance, r</tspan>
      </text>
      <text
         y="84.362709"
         x="-1079.6471"
         id="text4309"
         style="font-variant:normal;font-weight:normal;font-size:22.50377464px;font-family:Helvetica;-inkscape-font-specification:Helvetica;writing-mode:lr-tb;display:inline;fill:#262626;fill-opacity:1;fill-rule:nonzero;stroke:none"
         transform="matrix(0,-1.0002901,0.99971022,0,0,0)">
        <tspan
           id="tspan4311"
           sodipodi:role="line"
           y="84.362709"
           x="-1079.6471 -1063.3994 -1050.8873 -1038.3752 -1027.1233 -1014.6112 -1002.0991 -995.84308 -988.3493 -975.83722 -969.58118 -964.58533 -952.07324 -939.56116 -933.30511">Concentration,</tspan>
      </text>
      <g
         id="g5185"
         transform="matrix(1.2500002,0,0,-1.2500002,17.855377,1742.793)"
         style="display:inline">
        <text
           transform="matrix(0.99942,0,0,-1,279.453,697.343)"
           style="font-variant:normal;font-weight:normal;font-size:16.20750046px;font-family:Helvetica;-inkscape-font-specification:Helvetica;writing-mode:lr-tb;fill:#000000;fill-opacity:1;fill-rule:nonzero;stroke:none"
           id="text5187">
          <tspan
             x="0 9.0113697 12.609435 21.620806 30.632175 39.643543 48.654915 53.160599 64.862411 73.873787 82.885155 86.483223 95.494591 103.59834 108.10403 117.56921 122.07489"
             y="0"
             sodipodi:role="line"
             id="tspan5189">Ligand Radius = 1</tspan>
        </text>
      </g>
      <g
         id="g5199"
         transform="matrix(1.2500002,0,0,-1.2500002,17.855377,1742.793)"
         style="display:inline">
        <text
           transform="matrix(0.99942,0,0,-1,279.453,678.835)"
           style="font-variant:normal;font-weight:normal;font-size:16.20750046px;font-family:Helvetica;-inkscape-font-specification:Helvetica;writing-mode:lr-tb;fill:#000000;fill-opacity:1;fill-rule:nonzero;stroke:none"
           id="text5201">
          <tspan
             x="0 9.0113697 12.609435 21.620806 30.632175 39.643543 48.654915 53.160599 64.862411 73.873787 82.885155 86.483223 95.494591 103.59834 108.10403 117.56921 122.07489"
             y="0"
             sodipodi:role="line"
             id="tspan5203">Ligand Radius = 5</tspan>
        </text>
      </g>
      <g
         id="g5213"
         transform="matrix(1.2500002,0,0,-1.2500002,17.855377,1742.793)"
         style="display:inline">
        <text
           transform="matrix(0.99942,0,0,-1,279.453,660.326)"
           style="font-variant:normal;font-weight:normal;font-size:16.20750046px;font-family:Helvetica;-inkscape-font-specification:Helvetica;writing-mode:lr-tb;fill:#000000;fill-opacity:1;fill-rule:nonzero;stroke:none"
           id="text5215">
          <tspan
             x="0 9.0113697 12.609435 21.620806 30.632175 39.643543 48.654915 53.160599 64.862411 73.873787 82.885155 86.483223 95.494591 103.59834 108.10403 117.56921 122.07489 131.08626"
             y="0"
             sodipodi:role="line"
             id="tspan5217">Ligand Radius = 10</tspan>
        </text>
      </g>
      <g
         id="g5237"
         transform="matrix(0.12496377,0,0,0.12503627,47.855381,1742.793)"
         style="display:inline">
        <path
           d="m 2425.3,-6361.31 0,-960.17 1795.3,0 0,960.17 -1795.3,0 z"
           style="fill:none;stroke:#262626;stroke-width:5.0008502;stroke-linecap:butt;stroke-linejoin:miter;stroke-miterlimit:10;stroke-dasharray:none;stroke-opacity:1"
           id="path5239"
           inkscape:connector-curvature="0" />
      </g>
      <path
         d="m 84.592242,921.93898 c 0,0.66375 -0.15975,1.2525 -0.479,1.7675 -0.318875,0.515 -0.748625,0.9125 -1.288625,1.1925 -0.5395,0.28 -1.13575,0.42 -1.787125,0.42 -0.702625,0 -1.438,-0.15625 -2.20605,-0.46875 -0.768062,-0.3125 -1.471187,-0.7425 -2.109862,-1.29125 -0.637213,-0.54625 -1.145025,-1.165 -1.523438,-1.855 -0.377437,-0.69125 -0.565925,-1.39375 -0.565925,-2.11 l 0,-5.68625 c 0,-0.14375 0.05176,-0.27125 0.15625,-0.38125 0.104013,-0.11125 0.247075,-0.16625 0.429688,-0.16625 0.2085,0 0.396975,0.0775 0.566412,0.23375 0.16895,0.15625 0.253413,0.345 0.253413,0.5675 l 0,2.735 c 0.638187,-0.43 1.419437,-0.64375 2.34375,-0.64375 0.742187,0 1.481512,0.14625 2.217262,0.43875 0.735375,0.29375 1.40575,0.7 2.01075,1.22125 0.606,0.52125 1.087375,1.1275 1.444875,1.8175 0.358375,0.69 0.537625,1.42625 0.537625,2.20875 z m -0.5865,-0.04 c 0,-0.82 -0.32175,-1.5475 -0.96575,-2.17875 -0.645125,-0.6325 -1.42975,-1.1175 -2.353625,-1.45625 -0.92425,-0.3375 -1.78315,-0.5075 -2.577087,-0.5075 -0.638675,0 -1.143076,0.17875 -1.513675,0.5375 -0.371588,0.3575 -0.557626,0.85625 -0.557626,1.495 0,0.8725 0.292975,1.615 0.878913,2.2275 0.586425,0.61125 1.322263,1.0675 2.207025,1.3675 0.8857,0.29875 1.738825,0.44875 2.558575,0.44875 0.63825,0 1.184625,-0.16875 1.639625,-0.5075 0.456125,-0.33875 0.683625,-0.81375 0.683625,-1.42625"
         style="display:inline;fill:#262626;fill-opacity:1;fill-rule:nonzero;stroke:none"
         id="path4313"
         inkscape:connector-curvature="0" />
      <g
         id="g5171"
         transform="matrix(1.2500002,0,0,-1.2500002,17.855377,1742.793)"
         style="display:inline">
        <text
           transform="matrix(0.99942,0,0,-1,279.453,715.852)"
           style="font-variant:normal;font-weight:normal;font-size:16.20750046px;font-family:Helvetica;-inkscape-font-specification:Helvetica;writing-mode:lr-tb;fill:#000000;fill-opacity:1;fill-rule:nonzero;stroke:none"
           id="text5173">
          <tspan
             x="0 9.0113697 12.609435 21.620806 30.632175 39.643543 48.654915 53.160599 64.862411 73.873787 82.885155 86.483223 95.494591 103.59834 108.10403 117.56921 122.07489"
             y="0"
             sodipodi:role="line"
             id="tspan5175">Ligand Radius = 0</tspan>
        </text>
      </g>
      <flowRoot
         transform="translate(63.984327,0)"
         style="font-style:normal;font-variant:normal;font-weight:normal;font-stretch:normal;font-size:22.5px;line-height:125%;font-family:Arial;-inkscape-font-specification:'Arial, Normal';text-align:start;letter-spacing:0px;word-spacing:0px;writing-mode:lr-tb;text-anchor:start;display:inline;fill:#000000;fill-opacity:1;stroke:none;stroke-width:1px;stroke-linecap:butt;stroke-linejoin:miter;stroke-opacity:1"
         id="flowRoot16062"
         xml:space="preserve"><flowRegion
           id="flowRegion16064"><rect
             y="764.65356"
             x="212"
             height="42"
             width="305"
             id="rect16066" /></flowRegion><flowPara
           style="font-style:normal;font-variant:normal;font-weight:bold;font-stretch:normal;font-size:27.5px;line-height:125%;font-family:Arial;-inkscape-font-specification:'Arial, Bold';text-align:start;writing-mode:lr-tb;text-anchor:start"
           id="flowPara16068">Free-Space</flowPara></flowRoot>      <path
         d="m 113.45837,458.21255 474.3175,0 0,-362.6675 -474.3175,0 0,362.6675 z"
         style="display:inline;fill:#ffffff;fill-opacity:1;fill-rule:nonzero;stroke:none"
         id="path4171"
         inkscape:connector-curvature="0"
         transform="translate(0,719.29152)" />
      <g
         id="g4173"
         transform="matrix(0.12496377,0,0,0.12503627,47.855381,1742.793)"
         style="display:inline">
        <path
           d="m 524.976,-4521 3795.644,0"
           style="fill:none;stroke:#262626;stroke-width:5.0008502;stroke-linecap:square;stroke-linejoin:round;stroke-miterlimit:10;stroke-dasharray:none;stroke-opacity:1"
           id="path4175"
           inkscape:connector-curvature="0" />
      </g>
      <g
         id="g4177"
         transform="matrix(0.12496377,0,0,0.12503627,47.855381,1742.793)"
         style="display:inline">
        <path
           d="m 524.976,-7421.49 3795.644,0"
           style="fill:none;stroke:#262626;stroke-width:5.0008502;stroke-linecap:square;stroke-linejoin:round;stroke-miterlimit:10;stroke-dasharray:none;stroke-opacity:1"
           id="path4179"
           inkscape:connector-curvature="0" />
      </g>
      <g
         id="g4205"
         transform="matrix(0.12496377,0,0,0.12503627,47.855381,1742.793)"
         style="display:inline">
        <path
           d="m 524.976,-7421.49 0,37.95"
           style="fill:none;stroke:#262626;stroke-width:5.0008502;stroke-linecap:square;stroke-linejoin:round;stroke-miterlimit:10;stroke-dasharray:none;stroke-opacity:1"
           id="path4207"
           inkscape:connector-curvature="0" />
      </g>
      <g
         id="g4237"
         transform="matrix(0.12496377,0,0,0.12503627,47.855381,1742.793)"
         style="display:inline">
        <path
           d="m 524.976,-4521 0,-2900.49"
           style="fill:none;stroke:#262626;stroke-width:5.0008502;stroke-linecap:square;stroke-linejoin:round;stroke-miterlimit:10;stroke-dasharray:none;stroke-opacity:1"
           id="path4239"
           inkscape:connector-curvature="0" />
      </g>
      <g
         id="g4241"
         transform="matrix(0.12496377,0,0,0.12503627,47.855381,1742.793)"
         style="display:inline">
        <path
           d="m 4320.62,-4521 0,-2900.49"
           style="fill:none;stroke:#262626;stroke-width:5.0008502;stroke-linecap:square;stroke-linejoin:round;stroke-miterlimit:10;stroke-dasharray:none;stroke-opacity:1"
           id="path4243"
           inkscape:connector-curvature="0" />
      </g>
      <path
         inkscape:connector-curvature="0"
         d="m 116.40328,936.00265 c 2.94642,2.5596 6.01762,4.97159 8.7965,7.71549 1.69575,1.73178 3.4599,3.39505 5.14822,5.13475 1.47223,1.63067 3.04987,3.16923 4.43567,4.87472 1.45878,2.0108 2.80685,4.10891 4.34212,6.07204 1.70833,1.97836 2.88215,4.24434 3.73662,6.69729 0.71357,2.49746 1.56271,4.95569 2.26279,7.45598 0.38959,2.54357 1.5013,4.87541 2.18829,7.3379 0.59314,2.29508 0.70258,4.66218 0.78589,7.01833 0.0441,2.10751 0.032,4.21582 0.0314,6.32371 -0.0128,1.95979 -0.009,3.9196 -0.0103,5.87944 0.0135,1.7781 -0.004,3.5563 6.8e-4,5.3343 0.20958,1.8269 0.56644,3.6318 0.79238,5.4587 0.1765,2.0719 0.12965,4.1435 0.44545,6.2017 0.32342,1.9922 0.58865,3.9916 0.70295,6.0071 0.0948,1.8376 0.0787,3.6774 0.0856,5.5166 -0.22874,2.4604 0.35039,4.794 0.95422,7.1539 0.58687,2.9385 1.14101,5.8856 1.54152,8.8568 0.23922,3.5978 0.61955,7.1806 1.15165,10.7473 0.90067,3.6675 1.60914,7.3533 2.02184,11.1073 0.11469,3.7805 0.85102,7.4625 1.7394,11.1222 0.88535,3.4218 1.26336,6.9395 2.03966,10.3843 0.70811,2.6015 1.34305,5.2649 2.49678,7.7126 0.79684,1.7147 1.70016,3.3921 2.36305,5.1637 0.42592,1.6888 1.37912,3.1458 2.2616,4.623 1.07161,2.0671 1.92711,4.2419 2.60463,6.4674 0.46211,2.563 1.10136,5.0737 1.7842,7.5842 0.89616,2.3575 1.90927,4.6443 2.73816,7.0354 1.06472,2.5098 1.73149,5.1542 2.45363,7.7757 0.74132,2.2712 2.16911,4.0527 3.79682,5.7439 1.43031,1.6928 2.73585,3.4824 4.05472,5.2631 1.52395,1.8009 3.17278,3.4519 4.46062,5.4437 0.89883,2.2877 2.18646,4.346 3.36912,6.4897 1.23448,1.7194 3.28247,2.4498 4.93793,3.6662 1.90732,1.2104 3.81901,2.4009 5.59379,3.8024 1.81504,1.274 3.95883,1.9434 5.95837,2.8824 2.14522,0.8632 4.44886,1.0375 6.73296,1.1462 2.84283,0.1372 5.69341,-0.081 8.5239,0.2289 3.22296,0.4029 6.46132,0.6246 9.70582,0.7431 3.39915,0.046 6.75986,-0.029 10.10959,0.604 4.2155,0.9041 8.52068,1.1839 12.81628,1.3793 4.59915,0.1609 9.20209,0.1649 13.80349,0.1585 4.53221,5e-4 9.06439,-0.01 13.5966,-0.011 4.53966,-0.01 9.07931,-7e-4 13.61897,9e-4 5.41971,0.01 10.83941,0.016 16.25912,0.02 5.4496,0 10.8992,-0.011 16.3488,-0.011 4.66711,0.056 9.31385,0.016 13.96656,-0.3423 4.76072,-0.4214 9.53896,-0.5414 14.31531,-0.6172 5.414,-0.058 10.82842,-0.044 16.24263,-0.06 5.15049,0.2261 10.23326,-0.1691 15.33656,-0.8027 6.12295,-0.7303 12.28691,-0.9616 18.44649,-1.1074 6.17307,-0.1065 12.34748,-0.099 18.52129,-0.1 6.63313,0.1749 13.25063,-0.1487 19.87351,-0.4541 7.1699,-0.3366 14.3481,-0.43 21.52461,-0.4992 6.22515,-0.048 12.45052,-0.045 18.6758,-0.059 4.32177,0.1753 8.61089,-0.3273 12.90874,-0.6858 3.54677,-0.2721 7.10465,-0.3164 10.65995,-0.3472 3.77005,-0.022 7.53997,-0.094 11.30239,0.1628 6.16271,0.9067 12.33313,1.7386 18.51186,2.5356 5.91002,0.7657 11.86034,1.099 17.81301,1.2793 3.54224,0.097 7.08576,0.064 10.62872,0.055 2.89696,0.044 5.80409,-0.1493 8.68752,0.1627 3.27323,0.4679 6.5727,0.6476 9.87401,0.7587 2.86379,0.078 5.72884,0.082 8.59346,0.082 1.7045,0 0.86217,0 2.527,-0.01 0,0 -12.13561,8.818 -12.13561,8.818 l 0,0 c -1.65831,0 -0.81902,-10e-4 -2.51785,-0.01 -2.86045,-0.011 -5.72177,-0.028 -8.5798,-0.1591 -3.32358,-0.1437 -6.6362,-0.3911 -9.93996,-0.7871 -2.87657,-0.1432 -5.75692,-0.027 -8.63612,-0.052 -3.51381,-0.01 -7.02731,-0.074 -10.53932,-0.1863 -5.95495,-0.2417 -11.90099,-0.6828 -17.8143,-1.4411 -6.1836,-0.7554 -12.33333,-1.7672 -18.53095,-2.3854 -3.77116,-0.1183 -7.54302,-0.056 -11.31564,-0.041 -3.53345,0.049 -7.06855,0.1289 -10.59142,0.4274 -4.29011,0.3446 -8.57838,0.707 -12.88849,0.52 -6.20034,-0.016 -12.40078,-0.02 -18.60103,0.021 -7.16182,0.063 -14.32426,0.1763 -21.47848,0.5346 -6.65448,0.3208 -13.30558,0.5707 -19.96987,0.4382 -6.1637,0 -12.32811,-0.011 -18.49069,0.125 -6.14481,0.1726 -12.29238,0.4505 -18.39388,1.2427 -5.14316,0.6081 -10.285,0.8483 -15.46558,0.676 -5.40964,-0.014 -10.81975,-0.01 -16.22875,0.085 -4.76927,0.1064 -9.53626,0.2867 -14.29057,0.6972 -4.6624,0.3168 -9.32771,0.2631 -13.99899,0.2329 -5.43967,3e-4 -10.87933,-0.01 -16.319,-0.011 -5.43805,0 -10.87609,0.011 -16.31414,0.02 -4.54326,0 -9.08651,0.01 -13.62977,0.01 -4.53333,0 -9.06664,0.01 -13.59997,0.01 -4.61369,-0.018 -9.22986,-0.01 -13.83979,-0.223 -4.34597,-0.2433 -8.68451,-0.6162 -12.95876,-1.4775 -3.32639,-0.441 -6.67176,-0.3081 -10.01948,-0.4489 -3.26322,-0.1438 -6.51043,-0.4585 -9.76059,-0.7765 -2.8449,-0.1389 -5.6963,-0.012 -8.54083,-0.1914 -2.42022,-0.2034 -4.83303,-0.5554 -7.0541,-1.6017 -2.08987,-0.9724 -4.33347,-1.6694 -6.13843,-3.1594 -1.78951,-1.3487 -3.70261,-2.5019 -5.5663,-3.7416 -1.89309,-1.2692 -4.03065,-2.2489 -5.28329,-4.2601 -1.14415,-2.1179 -2.46311,-4.1269 -3.30627,-6.3938 -1.27824,-1.9569 -2.97462,-3.536 -4.42646,-5.3555 -1.28706,-1.7315 -2.54902,-3.4874 -3.96763,-5.1141 -1.74628,-1.9093 -3.27582,-3.9122 -4.13459,-6.3931 -0.69773,-2.591 -1.32691,-5.214 -2.41321,-7.6773 -0.85271,-2.4175 -1.81397,-4.7615 -2.77362,-7.1341 -0.68909,-2.4977 -1.40005,-4.9801 -1.77483,-7.5517 -0.61551,-2.118 -1.46019,-4.1588 -2.46329,-6.1234 -0.91695,-1.5581 -1.97516,-3.0829 -2.40545,-4.864 -0.61024,-1.7399 -1.52175,-3.3705 -2.2599,-5.0589 -1.21431,-2.5435 -1.86709,-5.3165 -2.59968,-8.0276 -0.8034,-3.4372 -1.18118,-6.9484 -2.00056,-10.3822 -0.91198,-3.7171 -1.76872,-7.4432 -1.85482,-11.2932 -0.35254,-3.7354 -1.01513,-7.4081 -1.97699,-11.0374 -0.59808,-3.5651 -0.94841,-7.1653 -1.20098,-10.7698 -0.36109,-2.9194 -0.95023,-5.7958 -1.48773,-8.6852 -0.60937,-2.4607 -1.38514,-4.8904 -1.16592,-7.4604 0.006,-1.8156 -0.004,-3.6319 -0.0534,-5.4468 -0.0902,-1.9689 -0.27208,-3.9308 -0.60926,-5.8743 -0.34497,-2.0793 -0.42899,-4.1476 -0.50439,-6.2523 -0.18487,-1.8873 -0.50861,-3.7475 -0.86199,-5.6097 0.004,-1.779 -0.013,-3.5581 0.002,-5.3371 9.4e-4,-1.9611 0.01,-3.9222 0.01,-5.8834 0.0128,-2.09745 0.0286,-4.19492 0.004,-6.29236 -0.0372,-2.24688 -0.11217,-4.50776 -0.60808,-6.70909 -0.64358,-2.47688 -1.80226,-4.79131 -2.17483,-7.3385 -0.66354,-2.47876 -1.55205,-4.89179 -2.21815,-7.37085 -0.78292,-2.30459 -1.87863,-4.43021 -3.49418,-6.27294 -1.502,-1.96862 -2.87605,-4.03044 -4.33681,-6.02142 -1.37859,-1.65406 -2.92441,-3.1645 -4.36427,-4.76526 -1.69972,-1.71663 -3.4308,-3.40111 -5.10319,-5.14496 -2.69322,-2.73148 -5.67846,-5.17941 -8.71478,-7.51548 0,0 12.68032,-8.02019 12.68032,-8.02019 z"
         id="path15685"
         style="fill:#352a87;fill-opacity:1;stroke:#352a87;stroke-width:0.99999988;stroke-linecap:butt;stroke-linejoin:miter;stroke-miterlimit:4;stroke-dasharray:none;stroke-dashoffset:3.19999957;stroke-opacity:1" />
      <path
         inkscape:connector-curvature="0"
         d="m 113.40265,1018.4511 c 3.14975,1.4718 6.34707,2.7598 9.17566,4.8052 1.88517,1.1977 3.03116,2.9041 4.26149,4.7018 0.97657,1.8013 2.37578,3.2692 3.53541,4.9513 1.83559,2.1607 3.01765,4.6277 3.97323,7.2702 0.71984,2.3132 1.65368,4.5523 2.22049,6.9108 0.72415,1.6446 1.02819,3.367 1.24427,5.141 0.39359,1.777 0.77367,3.555 1.23531,5.3159 0.62103,2.3562 0.75794,4.7949 1.14118,7.1943 0.5009,2.922 0.65937,5.8818 0.76407,8.8397 -0.10594,2.777 0.75658,5.4234 1.35119,8.1028 0.41704,2.7481 0.92155,5.4826 1.2884,8.2385 0.32484,2.804 0.41038,5.6257 0.45603,8.4454 0.0112,2.826 0.36532,5.6539 0.80338,8.4436 0.44415,2.6471 0.97206,5.2754 1.50272,7.9059 0.8825,2.6953 1.68204,5.3718 2.29399,8.1464 0.53279,3.073 1.68473,5.9213 3.47564,8.4612 1.54537,2.3384 3.20237,4.5972 4.80595,6.8947 1.1667,1.9702 2.57047,3.729 3.98732,5.5142 1.22665,1.5991 2.50098,3.1291 4.0827,4.3841 1.33601,1.2435 2.798,2.2122 4.41405,3.0424 1.63911,1.1054 3.07076,2.417 4.73934,3.4972 1.91872,1.4177 4.25836,2.0606 6.35787,3.1458 2.6125,1.2903 5.24793,2.521 7.92319,3.6737 0.44993,0.1682 0.89287,0.3564 1.34979,0.5045 5.76417,1.8691 -2.90022,-1.0408 2.80835,0.6856 1.4305,0.4327 2.74752,1.2428 4.10178,1.8604 3.05496,1.5429 6.16157,2.9644 9.25308,4.4338 3.3221,1.6543 6.74016,3.1902 10.31052,4.2276 4.77254,1.5025 9.8237,1.7837 14.77254,2.3242 5.64984,0.7882 11.26726,1.7427 16.9459,2.3066 5.04592,0.4585 10.11492,0.5133 15.17763,0.5552 4.55024,0.021 9.10051,0 13.65079,10e-5 5.19591,-0.033 10.39415,0.1094 15.58544,-0.1339 5.79061,-0.3819 11.5888,-0.6168 17.38926,-0.7793 4.47,-0.3703 8.85313,-1.327 13.32113,-1.7411 4.50783,-0.7548 9.05871,-1.0671 13.62006,-1.2366 6.26252,-0.1789 12.52897,-0.1287 18.79329,-0.1187 8.48588,0.1533 16.93246,-0.8306 25.39209,-1.3502 7.88811,-0.4819 15.79129,-0.5921 23.6918,-0.6457 8.95933,-0.02 17.91862,0.015 26.87795,0.01 8.57486,0 17.14973,-4e-4 25.72457,-0.017 6.87505,0 13.75009,-0.02 20.62513,-0.031 5.84687,-0.01 11.69377,0 17.54066,2e-4 6.15938,0.03 12.31878,0 18.47816,-0.01 5.38344,-0.01 10.76689,0 16.15034,0 4.69663,0 9.39324,-0.017 14.08988,-0.022 4.36036,0.01 8.72074,0 13.08111,0 5.35488,0.017 10.70979,0.024 16.0647,0.02 3.49668,-0.01 1.77098,0 5.1771,-0.01 0,0 -12.00854,8.7247 -12.00854,8.7247 l 0,0 c -3.38848,-0.01 -1.67136,0 -5.15136,-0.01 -5.37301,0 -10.74603,0 -16.11901,0.02 -4.36479,0.01 -8.72959,0 -13.09439,0 -4.67657,0 -9.35311,-0.02 -14.02968,-0.022 -5.38222,0 -10.76444,0.01 -16.14666,0 -6.15055,-0.01 -12.30111,-0.04 -18.45166,-0.01 -5.84712,0 -11.69426,0.011 -17.54137,3e-4 -6.84585,-0.011 -13.69171,-0.035 -20.53758,-0.033 -8.55138,-0.019 -17.10278,-0.028 -25.65418,-0.035 -8.98142,-0.017 -17.96307,-0.01 -26.94429,0.057 -7.8691,0.075 -15.74062,0.1882 -23.59722,0.6765 -8.49225,0.5547 -16.9767,1.4599 -25.49801,1.3146 -6.29395,0.022 -12.59036,0.027 -18.8808,0.2615 -4.55735,0.2329 -9.08964,0.6775 -13.60632,1.3357 -4.45319,0.5109 -8.85816,1.4438 -13.34504,1.6177 -5.78628,0.1488 -11.56661,0.4179 -17.34395,0.7734 -5.22348,0.1921 -10.45067,0.082 -15.67697,0.1265 -4.55323,0.015 -9.10646,0.019 -13.65964,-0.015 -5.07618,-0.062 -10.15936,-0.1843 -15.21282,-0.7025 -5.66867,-0.6288 -11.28812,-1.5833 -16.94322,-2.318 -5.04474,-0.5628 -10.18399,-0.8693 -15.03062,-2.4875 -3.59169,-1.1714 -7.06091,-2.7115 -10.44095,-4.3936 -3.10209,-1.45 -6.18825,-2.9264 -9.27766,-4.401 -0.29232,-0.1357 -2.2616,-1.0574 -2.61316,-1.1912 -1.84327,-0.7013 -3.85333,-0.918 -5.62589,-1.8288 -2.69468,-1.159 -5.3216,-2.4597 -7.9686,-3.7226 -2.21409,-0.9948 -4.52721,-1.8305 -6.50224,-3.2791 -1.62094,-1.0628 -2.98342,-2.4405 -4.67617,-3.3835 -1.66345,-0.9236 -3.15798,-2.0333 -4.58086,-3.2987 -1.59047,-1.3849 -2.94024,-2.978 -4.22743,-4.6457 -1.46447,-1.7937 -2.78583,-3.6559 -4.00927,-5.6233 -1.59539,-2.3025 -3.23936,-4.571 -4.79939,-6.8981 -1.86123,-2.7075 -3.13426,-5.7366 -3.72584,-8.9807 -0.64841,-2.7755 -1.39835,-5.4781 -2.35631,-8.1625 -0.50755,-2.6502 -1.08854,-5.2815 -1.50455,-7.9491 -0.51712,-2.8436 -0.82339,-5.7585 -0.92243,-8.6434 -0.0279,-2.7692 -0.0777,-5.5427 -0.36735,-8.2992 -0.33257,-2.7218 -0.88775,-5.4038 -1.24312,-8.1215 -0.56709,-2.7706 -1.55102,-5.4879 -1.4573,-8.3483 -0.0837,-2.897 -0.2027,-5.7981 -0.68663,-8.6616 -0.39021,-2.3493 -0.57913,-4.7227 -1.10778,-7.0458 -0.4911,-1.8302 -0.89568,-3.6718 -1.34933,-5.5121 -0.16538,-1.735 -0.43058,-3.3956 -1.16686,-4.992 -0.47717,-2.322 -1.37975,-4.5096 -2.08001,-6.7681 -0.9207,-2.525 -1.99931,-4.8752 -3.79808,-6.9195 -1.18141,-1.6709 -2.62966,-3.1227 -3.56657,-4.9563 -1.11855,-1.6629 -2.24407,-3.1579 -3.96747,-4.2647 -2.75175,-1.974 -5.91907,-3.2018 -9.00966,-4.5445 0,0 12.49831,-8.305 12.49831,-8.305 z"
         id="path15687"
         style="display:inline;fill:#0f77db;fill-opacity:1;stroke:#0f77db;stroke-width:1;stroke-linecap:butt;stroke-linejoin:miter;stroke-miterlimit:4;stroke-dasharray:none;stroke-dashoffset:3.20000005;stroke-opacity:1" />
      <path
         inkscape:connector-curvature="0"
         d="m 116.66443,1098.3884 c 3.95471,1.8054 7.90342,3.5761 11.61013,5.8594 2.93098,1.4416 5.06152,3.7245 6.8877,6.3597 0.90137,1.6792 1.86279,3.3029 3.04186,4.8013 1.37841,1.2346 2.56077,2.656 3.65841,4.1395 1.10716,1.4614 2.15983,2.9526 3.41236,4.2932 1.54697,1.4229 2.25582,3.4391 3.07544,5.3178 0.95622,2.0771 1.8418,4.1759 3.0432,6.1258 1.17694,1.452 1.86178,3.1583 2.52254,4.8797 0.57631,1.4186 1.03458,2.8812 1.53779,4.3281 0.38241,1.5073 0.48869,2.9506 1.29086,4.2988 0.79176,1.4816 1.25383,3.1147 1.74638,4.7139 0.35803,1.6269 0.74828,3.2389 1.32626,4.8041 0.80515,1.4662 1.66992,2.9084 2.44117,4.3936 0.47152,1.5458 1.39293,2.8771 2.04591,4.3345 0.50965,1.5378 1.23076,2.9977 2.20966,4.2911 1.24756,1.367 3.1304,1.9929 4.86068,2.5272 1.69281,0.8435 3.52146,1.1634 5.38432,1.3324 2.20911,0.137 4.42446,0.1218 6.63683,0.1193 2.35837,-0.1493 4.66671,0.3532 6.99023,0.6811 2.16664,0.2488 4.34938,0.2867 6.52778,0.3093 2.33192,0.018 4.66394,0.011 6.99591,0.012 2.54879,0 5.09755,-0.01 7.64633,-8e-4 2.77365,-4e-4 5.54725,0 8.32089,0.01 3.40996,4e-4 6.8199,0.01 10.22985,0.013 3.93893,-7e-4 7.87787,0.01 11.81682,0.01 3.51148,0.059 6.99203,0.035 10.47975,-0.3649 2.77798,-0.4201 5.58506,-0.553 8.39005,-0.6222 3.30133,-0.072 6.60362,-0.04 9.90538,-0.031 4.82075,0.017 9.64155,0.019 14.46232,0.027 4.85447,-0.01 9.70893,-0.011 14.5634,0 5.85951,-0.2775 11.65546,0.58 17.46784,1.1532 7.8115,0.6923 15.65722,0.7927 23.49349,0.8941 9.74667,0.2727 19.46538,1.0638 29.20276,1.5355 9.42931,0.422 18.86908,0.484 28.3061,0.5312 8.72269,-0.1555 17.43091,0.1474 26.14454,0.4833 9.66728,0.3759 19.34208,0.4616 29.01548,0.5123 8.55377,0.034 17.10767,0.012 25.66146,-0.01 5.32111,-0.012 10.64216,-0.043 15.96321,-0.07 4.14704,0 8.29407,0 12.4411,0.012 4.81761,0 9.63521,0.01 14.45282,0.01 4.33592,-0.01 8.67186,0 13.00773,-0.022 1.73491,-0.1414 3.51056,0.1424 5.24276,-0.028 0.71369,-0.07 1.41108,-0.2579 2.1196,-0.3688 3.11858,-0.4786 6.28271,-0.5 9.43018,-0.5559 4.4974,-0.4037 8.94715,-1.1991 13.4386,-1.6817 2.98304,-0.2932 5.97719,-0.3987 8.97277,-0.4286 3.33818,0 6.67628,0.024 10.01442,0.04 4.72649,0.023 9.45303,0.02 14.17953,0 1.71374,0 3.42742,-0.013 5.14111,-0.022 0,0 -12.1139,8.8011 -12.1139,8.8011 l 0,0 c -1.69276,-0.01 -3.38549,-0.024 -5.0783,-0.023 -4.72377,-0.018 -9.44759,-0.024 -14.17139,-0.011 -3.36511,0.01 -6.73035,0.011 -10.0953,0.047 -2.94197,0.051 -5.88408,0.1725 -8.81122,0.4872 -4.50869,0.5048 -8.98287,1.3342 -13.51609,1.5816 -3.14568,0.097 -6.29612,0.2313 -9.4051,0.7584 -2.46499,0.3259 -4.94546,0.1683 -7.42662,0.1782 -4.31595,-0.025 -8.63197,-0.013 -12.94796,-0.022 -4.82251,0 -9.64502,6e-4 -14.46752,0.01 -4.15838,0.01 -8.31676,0.01 -12.47514,0.014 -5.26195,-0.024 -10.52391,-0.051 -15.78591,-0.059 -8.5154,-0.018 -17.03081,-0.036 -25.5461,-0.087 -9.70017,-0.073 -19.40243,-0.1495 -29.09706,-0.5108 -8.69467,-0.3322 -17.38688,-0.5498 -26.08928,-0.4639 -9.44357,-0.055 -18.88981,-0.1486 -28.3244,-0.599 -9.73921,-0.512 -19.46642,-1.2906 -29.22103,-1.4531 -7.89672,-0.087 -15.80187,-0.2156 -23.67243,-0.9211 -5.80922,-0.57 -11.61095,-1.2534 -17.4623,-0.9786 -4.85027,0.01 -9.70056,0 -14.55083,-0.01 -4.83986,0.01 -9.67973,0 -14.51957,0.016 -3.31176,0.01 -6.62431,0.019 -9.93492,0.1141 -2.77968,0.1184 -5.54944,0.3416 -8.31023,0.6922 -3.50315,0.3225 -7.01409,0.2112 -10.52867,0.2103 -3.94436,5e-4 -7.88872,0.01 -11.83308,0.01 -3.42156,0 -6.84313,0.012 -10.26468,0.013 -2.78005,0.01 -5.56003,0.01 -8.34008,0.01 -2.55195,0.01 -5.10388,0 -7.65583,0.01 -2.34228,0.01 -4.68473,0.012 -7.0268,-0.025 -2.2201,-0.057 -4.44466,-0.1271 -6.64442,-0.46 -2.2746,-0.3426 -4.54746,-0.6484 -6.85587,-0.5136 -2.25334,-0.012 -4.51574,0 -6.75772,-0.2523 -1.92526,-0.2905 -3.77109,-0.8168 -5.56112,-1.5915 -1.973,-0.7387 -4.01917,-1.6134 -5.37856,-3.2896 -0.98993,-1.4043 -1.84015,-2.9304 -2.36129,-4.5737 -0.62354,-1.4376 -1.57841,-2.7265 -2.00863,-4.2566 -0.77658,-1.5412 -1.66955,-3.0285 -2.51113,-4.5345 -0.63522,-1.5822 -1.06214,-3.2356 -1.38016,-4.9082 -0.43291,-1.4887 -0.89087,-2.9946 -1.58115,-4.3842 -0.89875,-1.5178 -1.17121,-2.852 -1.44178,-4.5738 -0.474,-1.433 -0.97202,-2.8567 -1.49566,-4.2698 -0.65714,-1.6336 -1.21044,-3.2964 -2.37484,-4.671 -1.2037,-2.0253 -2.13757,-4.1631 -3.12935,-6.2974 -0.77324,-1.7259 -1.39782,-3.5719 -2.83343,-4.883 -1.27657,-1.3867 -2.3822,-2.9089 -3.49705,-4.427 -1.11167,-1.4698 -2.34825,-2.817 -3.65894,-4.113 -1.16704,-1.541 -2.1749,-3.1663 -3.05974,-4.887 -1.69629,-2.4903 -3.70606,-4.5208 -6.45755,-5.8782 -3.70741,-2.1978 -7.59797,-4.0127 -11.57322,-5.6744 0,0 12.47764,-8.2762 12.47764,-8.2762 z"
         id="path15689"
         style="display:inline;fill:#07aac1;fill-opacity:1;stroke:#07aac1;stroke-width:1;stroke-linecap:butt;stroke-linejoin:miter;stroke-miterlimit:4;stroke-dasharray:none;stroke-dashoffset:3.20000005;stroke-opacity:1" />
      <g
         id="g16232">
        <g
           transform="matrix(0.12496377,0,0,0.12503627,23.795856,1742.793)"
           id="g5177"
           style="display:inline;stroke-width:15.99999714;stroke-miterlimit:10;stroke-dasharray:none">
          <path
             inkscape:connector-curvature="0"
             id="path5179"
             style="fill:none;stroke:#352a87;stroke-width:15.99999714;stroke-linecap:butt;stroke-linejoin:round;stroke-miterlimit:10;stroke-dasharray:none;stroke-opacity:1"
             d="m 2465.3,-7211.46 300.06,0" />
        </g>
        <path
           d="m 331.86901,864.23552 37.49663,0"
           style="display:inline;fill:none;stroke:#0f77db;stroke-width:1.99999976;stroke-linecap:butt;stroke-linejoin:round;stroke-miterlimit:10;stroke-dasharray:none;stroke-opacity:1"
           id="path5193"
           inkscape:connector-curvature="0" />
        <g
           transform="matrix(0.12496377,0,0,0.12503627,23.795856,1742.793)"
           id="g5205"
           style="display:inline;stroke-width:15.99999714;stroke-miterlimit:10;stroke-dasharray:none">
          <path
             inkscape:connector-curvature="0"
             id="path5207"
             style="fill:none;stroke:#07aac1;stroke-width:15.99999714;stroke-linecap:butt;stroke-linejoin:round;stroke-miterlimit:10;stroke-dasharray:none;stroke-opacity:1"
             d="m 2465.3,-6841.39 300.06,0" />
        </g>
        <g
           style="display:inline"
           transform="matrix(0.12496377,0,0,0.12503627,23.795856,1719.6582)"
           id="g5233">
          <path
             inkscape:connector-curvature="0"
             id="path5235"
             style="fill:none;stroke:#000000;stroke-width:15.00259972;stroke-linecap:butt;stroke-linejoin:bevel;stroke-miterlimit:10;stroke-dasharray:100.017, 60.0102;stroke-dashoffset:0;stroke-opacity:1"
             d="m 2465.3,-6471.33 300.06,0" />
        </g>
        <flowRoot
           xml:space="preserve"
           id="flowRoot15784"
           style="font-style:normal;font-variant:normal;font-weight:normal;font-stretch:normal;font-size:22.5px;line-height:125%;font-family:Arial;-inkscape-font-specification:'Arial, Normal';text-align:start;letter-spacing:0px;word-spacing:0px;writing-mode:lr-tb;text-anchor:start;fill:#000000;fill-opacity:1;stroke:none;stroke-width:1px;stroke-linecap:butt;stroke-linejoin:miter;stroke-opacity:1"
           transform="translate(-29.999999,-1.671582)"><flowRegion
             id="flowRegion15786"><rect
               id="rect15788"
               width="182.4823"
               height="28.294434"
               x="410.12195"
               y="828.17108" /></flowRegion><flowPara
             id="flowPara15790"
             style="font-style:normal;font-variant:normal;font-weight:normal;font-stretch:normal;font-size:19.99999809px;line-height:125%;font-family:Arial;-inkscape-font-specification:'Arial, Normal';text-align:start;writing-mode:lr-tb;text-anchor:start">Ligand Radius = 0</flowPara></flowRoot>        <flowRoot
           style="font-style:normal;font-variant:normal;font-weight:normal;font-stretch:normal;font-size:14.99999809px;line-height:125%;font-family:Arial;-inkscape-font-specification:'Arial, Normal';text-align:start;letter-spacing:0px;word-spacing:0px;writing-mode:lr-tb;text-anchor:start;fill:#000000;fill-opacity:1;stroke:none;stroke-width:1px;stroke-linecap:butt;stroke-linejoin:miter;stroke-opacity:1"
           id="flowRoot15792"
           xml:space="preserve"
           transform="translate(-29.999999,21.435829)"><flowRegion
             id="flowRegion15794"><rect
               y="828.17108"
               x="410.12195"
               height="29.294434"
               width="210.71582"
               id="rect15796"
               style="font-style:normal;font-variant:normal;font-weight:normal;font-stretch:normal;font-size:14.99999809px;line-height:125%;font-family:Arial;-inkscape-font-specification:'Arial, Normal';text-align:start;writing-mode:lr-tb;text-anchor:start" /></flowRegion><flowPara
             style="font-style:normal;font-variant:normal;font-weight:normal;font-stretch:normal;font-size:19.99999809px;line-height:125%;font-family:Arial;-inkscape-font-specification:'Arial, Normal';text-align:start;writing-mode:lr-tb;text-anchor:start"
             id="flowPara15816">Ligand Radius = small</flowPara></flowRoot>        <flowRoot
           transform="translate(-29.999999,44.57129)"
           xml:space="preserve"
           id="flowRoot15800"
           style="font-style:normal;font-variant:normal;font-weight:normal;font-stretch:normal;font-size:14.99999809px;line-height:125%;font-family:Arial;-inkscape-font-specification:'Arial, Normal';text-align:start;letter-spacing:0px;word-spacing:0px;writing-mode:lr-tb;text-anchor:start;fill:#000000;fill-opacity:1;stroke:none;stroke-width:1px;stroke-linecap:butt;stroke-linejoin:miter;stroke-opacity:1"><flowRegion
             id="flowRegion15802"><rect
               id="rect15804"
               width="205.4823"
               height="31.294434"
               x="410.12195"
               y="828.17108"
               style="font-style:normal;font-variant:normal;font-weight:normal;font-stretch:normal;font-size:14.99999809px;line-height:125%;font-family:Arial;-inkscape-font-specification:'Arial, Normal';text-align:start;writing-mode:lr-tb;text-anchor:start" /></flowRegion><flowPara
             style="font-style:normal;font-variant:normal;font-weight:normal;font-stretch:normal;font-size:19.99999809px;line-height:125%;font-family:Arial;-inkscape-font-specification:'Arial, Normal';text-align:start;writing-mode:lr-tb;text-anchor:start"
             id="flowPara15818">Ligand Radius = large</flowPara></flowRoot>        <flowRoot
           style="font-style:normal;font-variant:normal;font-weight:normal;font-stretch:normal;font-size:14.99999809px;line-height:125%;font-family:Arial;-inkscape-font-specification:'Arial, Normal';text-align:start;letter-spacing:0px;word-spacing:0px;writing-mode:lr-tb;text-anchor:start;fill:#000000;fill-opacity:1;stroke:none;stroke-width:1px;stroke-linecap:butt;stroke-linejoin:miter;stroke-opacity:1"
           id="flowRoot15808"
           xml:space="preserve"
           transform="translate(-29.084472,69.694713)"><flowRegion
             id="flowRegion15810"><rect
               y="828.17108"
               x="410.12195"
               height="29.294424"
               width="147.48227"
               id="rect15812"
               style="font-style:normal;font-variant:normal;font-weight:normal;font-stretch:normal;font-size:14.99999809px;line-height:125%;font-family:Arial;-inkscape-font-specification:'Arial, Normal';text-align:start;writing-mode:lr-tb;text-anchor:start" /></flowRegion><flowPara
             style="font-style:normal;font-variant:normal;font-weight:normal;font-stretch:normal;font-size:19.99999809px;line-height:125%;font-family:Arial;-inkscape-font-specification:'Arial, Normal';text-align:start;writing-mode:lr-tb;text-anchor:start"
             id="flowPara15820">Worm-like chain</flowPara></flowRoot>      </g>
      <g
         style="display:inline"
         id="g15963"
         transform="matrix(0.12496377,0,0,0.12503627,48.161946,1741.1049)">
        <path
           d="m 524.976,-6491.47 19.072,6.21 19.072,18.51 19.076,30.47 19.072,41.85 19.072,52.47 19.076,62.14 19.072,70.71 19.072,78.07 19.076,84.12 19.072,88.83 19.071,92.16 19.076,94.19 19.072,94.89 19.072,94.43 19.084,92.85 19.076,90.29 19.072,86.88 19.072,82.77 19.075,78.12 19.072,73.03 19.072,67.67 19.076,62.17 19.072,56.63 19.072,51.15 19.078,45.84 19.07,40.74 19.07,35.94 19.08,31.44 19.07,27.33 19.07,23.54 19.08,20.15 19.07,17.11 19.07,14.42 19.08,12.08 19.07,10.03 19.07,8.29 19.08,6.78 19.07,5.52 19.07,4.45 19.08,3.58 19.07,2.85 19.07,2.25 19.08,1.77 19.08,1.38 19.07,1.07 19.07,0.82 19.08,0.63 19.07,0.48 19.07,0.36 19.08,0.27 19.07,0.2 19.07,0.15 19.08,0.11 19.07,0.08 19.07,0.06 19.08,0.04 19.07,0.03 19.07,0.02 19.08,0.02 19.07,0.01 19.07,0 19.08,0.01 19.07,0 19.07,0.01 2574.94,0"
           style="fill:none;stroke:#000000;stroke-width:31.99999428;stroke-linecap:butt;stroke-linejoin:bevel;stroke-miterlimit:10;stroke-dasharray:213.33259287, 127.99955572;stroke-dashoffset:0;stroke-opacity:1"
           id="path15965"
           inkscape:connector-curvature="0" />
      </g>
      <g
         transform="translate(-28.999997,0)"
         id="g16325">
        <text
           transform="scale(0.99971008,1.0002902)"
           style="font-variant:normal;font-weight:normal;font-size:22.50384903px;font-family:Helvetica;-inkscape-font-specification:Helvetica;writing-mode:lr-tb;display:inline;fill:#262626;fill-opacity:1;fill-rule:nonzero;stroke:none"
           id="text5301"
           x="731.09247"
           y="1205.4193">
          <tspan
             x="731.09247 819.73199 832.24414 914.6228 927.13495 1009.5137 1022.0258 1104.4041 1116.9163 1199.2949 1211.8071"
             y="1205.4193"
             sodipodi:role="line"
             id="tspan5303">01020304050</tspan>
          <tspan
             x="863.30164 878.31171 890.82385 903.336 915.84814 923.34192 935.85406 942.11011 947.10596 959.6181 972.13025 978.38629 994.63409 999.62994 1010.8819 1017.1379 1029.65 1042.1622 1053.4142 1065.9263 1072.1824 1078.4384"
             y="1232.2987"
             sodipodi:role="line"
             id="tspan5305">Separation Distance, r</tspan>
        </text>
        <text
           transform="matrix(0,-1.0002901,0.99971022,0,0,0)"
           style="font-variant:normal;font-weight:normal;font-size:22.50377464px;font-family:Helvetica;-inkscape-font-specification:Helvetica;writing-mode:lr-tb;display:inline;fill:#262626;fill-opacity:1;fill-rule:nonzero;stroke:none"
           id="text5379"
           x="-1080.6469"
           y="709.46606">
          <tspan
             x="-1080.6469 -1064.3992 -1051.8871 -1039.375 -1028.123 -1015.611 -1003.0989 -996.84283 -989.34906 -976.83698 -970.58093 -965.58508 -953.073 -940.56091 -934.30487"
             y="709.46606"
             sodipodi:role="line"
             id="tspan5381">Concentration,</tspan>
        </text>
        <path
           inkscape:connector-curvature="0"
           id="path5383"
           style="display:inline;fill:#262626;fill-opacity:1;fill-rule:nonzero;stroke:none"
           d="m 709.51412,922.93898 c 0,0.66375 -0.16,1.2525 -0.47875,1.7675 -0.31875,0.515 -0.74875,0.9125 -1.28875,1.1925 -0.54,0.28 -1.13625,0.42 -1.7875,0.42 -0.7025,0 -1.4375,-0.15625 -2.20625,-0.46875 -0.7675,-0.3125 -1.47125,-0.7425 -2.11,-1.29125 -0.63625,-0.54625 -1.145,-1.165 -1.5225,-1.855 -0.3775,-0.69125 -0.56625,-1.39375 -0.56625,-2.11 l 0,-5.68625 c 0,-0.14375 0.0512,-0.27125 0.15625,-0.38125 0.10375,-0.11125 0.2475,-0.16625 0.43,-0.16625 0.20875,0 0.39625,0.0775 0.56625,0.23375 0.16875,0.15625 0.25375,0.345 0.25375,0.5675 l 0,2.735 c 0.6375,-0.43 1.41875,-0.64375 2.34375,-0.64375 0.74125,0 1.48125,0.14625 2.21625,0.43875 0.73625,0.29375 1.40625,0.7 2.01125,1.22125 0.60625,0.52125 1.0875,1.1275 1.445,1.8175 0.35875,0.69 0.5375,1.42625 0.5375,2.20875 z m -0.58625,-0.04 c 0,-0.82 -0.3225,-1.5475 -0.96625,-2.17875 -0.645,-0.6325 -1.43,-1.1175 -2.35375,-1.45625 -0.92375,-0.3375 -1.7825,-0.5075 -2.57625,-0.5075 -0.63875,0 -1.14375,0.17875 -1.51375,0.5375 -0.3725,0.3575 -0.5575,0.85625 -0.5575,1.495 0,0.8725 0.2925,1.615 0.87875,2.2275 0.58625,0.61125 1.3225,1.0675 2.20625,1.3675 0.88625,0.29875 1.73875,0.44875 2.55875,0.44875 0.63875,0 1.185,-0.16875 1.64,-0.5075 0.45625,-0.33875 0.68375,-0.81375 0.68375,-1.42625" />
        <flowRoot
           style="font-style:normal;font-variant:normal;font-weight:normal;font-stretch:normal;font-size:22.5px;line-height:125%;font-family:Arial;-inkscape-font-specification:'Arial, Normal';text-align:start;letter-spacing:0px;word-spacing:0px;writing-mode:lr-tb;text-anchor:start;display:inline;fill:#000000;fill-opacity:1;stroke:none;stroke-width:1px;stroke-linecap:butt;stroke-linejoin:miter;stroke-opacity:1"
           id="flowRoot16070"
           xml:space="preserve"
           transform="translate(691.37929,4.5064631e-6)"><flowRegion
             id="flowRegion16072"><rect
               y="764.65356"
               x="212"
               height="42"
               width="305"
               id="rect16074" /></flowRegion><flowPara
             id="flowPara16076"
             style="font-style:normal;font-variant:normal;font-weight:bold;font-stretch:normal;font-size:27.49999619px;line-height:125%;font-family:Arial;-inkscape-font-specification:'Arial, Bold';text-align:start;writing-mode:lr-tb;text-anchor:start">Half-Space</flowPara></flowRoot>        <g
           style="display:inline"
           transform="matrix(0.12496377,0,0,0.12503627,47.855381,1742.793)"
           id="g5247">
          <path
             inkscape:connector-curvature="0"
             id="path5249"
             style="fill:none;stroke:#262626;stroke-width:5.0008502;stroke-linecap:square;stroke-linejoin:round;stroke-miterlimit:10;stroke-dasharray:none;stroke-opacity:1"
             d="m 5520.82,-7421.49 3795.65,0" />
        </g>
        <g
           style="display:inline"
           transform="matrix(0.12496377,0,0,0.12503627,47.855381,1742.793)"
           id="g5307">
          <path
             inkscape:connector-curvature="0"
             id="path5309"
             style="fill:none;stroke:#262626;stroke-width:5.0008502;stroke-linecap:square;stroke-linejoin:round;stroke-miterlimit:10;stroke-dasharray:none;stroke-opacity:1"
             d="m 5520.82,-4521 0,-2900.49" />
        </g>
        <g
           style="display:inline"
           transform="matrix(0.12496377,0,0,0.12503627,47.855381,1742.793)"
           id="g5311">
          <path
             inkscape:connector-curvature="0"
             id="path5313"
             style="fill:none;stroke:#262626;stroke-width:5.0008502;stroke-linecap:square;stroke-linejoin:round;stroke-miterlimit:10;stroke-dasharray:none;stroke-opacity:1"
             d="m 9316.47,-4521 0,-2900.49" />
        </g>
        <g
           style="display:inline"
           transform="matrix(0.12496377,0,0,0.12503627,47.855381,1742.793)"
           id="g6027">
          <path
             inkscape:connector-curvature="0"
             id="path6029"
             style="fill:none;stroke:#7abf7c;stroke-width:12.00199986;stroke-linecap:butt;stroke-linejoin:round;stroke-miterlimit:10;stroke-dasharray:none;stroke-opacity:1"
             d="m 5520.82,-4531.03 75.92,0.92 75.91,0.51 75.92,-0.07 75.91,1.83 75.91,1.28 75.91,0.29 75.92,0.04 75.91,1.09 75.91,0.55 75.91,0.26 75.92,0.58 75.91,0.08 75.91,0.77 75.91,0.18 75.92,0.33 75.91,0.29 75.92,0.33 75.91,0.33 75.91,0.18 75.91,0 75.92,0.15 75.91,0.11 2125.56,0" />
        </g>
        <g
           style="display:inline"
           transform="matrix(0.12496377,0,0,0.12503627,47.855381,1742.793)"
           id="g5243">
          <path
             inkscape:connector-curvature="0"
             id="path5245"
             style="fill:none;stroke:#262626;stroke-width:5.0008502;stroke-linecap:square;stroke-linejoin:round;stroke-miterlimit:10;stroke-dasharray:none;stroke-opacity:1"
             d="m 5520.82,-4521 3795.65,0" />
        </g>
        <path
           style="display:inline;fill:#352a87;fill-opacity:1;stroke:#352a87;stroke-width:1;stroke-linecap:butt;stroke-linejoin:miter;stroke-miterlimit:4;stroke-dasharray:none;stroke-dashoffset:3.20000005;stroke-opacity:1"
           id="path15693"
           d="m 740.87563,817.22194 c 3.49168,1.15267 7.21491,2.26263 10.14454,4.55663 1.35495,1.57866 2.71006,3.17903 3.97524,4.83189 0.13444,0.23947 0.29388,0.46653 0.40332,0.71841 0.31302,0.72042 0.28544,1.03178 0.59754,1.71899 0.32181,0.70857 0.90446,1.32203 1.35691,1.9462 0.84627,1.83471 2.14055,3.23824 3.44978,4.72424 0.95413,1.46329 1.14018,3.21452 1.65759,4.84492 0.2376,1.65876 1.00785,3.05516 1.70944,4.54192 0.70222,1.63383 0.86455,3.41404 1.31627,5.12039 0.44192,1.83328 0.67372,3.70361 0.77967,5.58359 -0.0972,1.82774 0.311,3.58643 0.62842,5.36927 0.34321,2.02137 0.38449,4.07307 0.41963,6.11756 -0.0718,2.08057 0.42169,4.1128 0.72212,6.15732 0.2103,1.82756 0.28221,3.6664 0.32014,5.50437 0.0174,1.55742 0.0167,3.11487 0.01,4.67235 0.0232,1.66395 -0.0644,3.32701 0.0637,4.98722 0.41593,2.22829 0.64864,4.48068 0.78612,6.74144 -0.003,2.8754 0.20898,5.722 0.54235,8.57554 0.36281,3.08739 0.48266,6.19364 0.5412,9.29925 -0.11336,3.29274 0.29546,6.55571 0.62251,9.8236 0.33603,2.82266 0.26615,5.6713 0.51295,8.49877 0.60987,2.61751 1.30133,5.19198 1.61143,7.86667 0.13568,3.19774 0.60878,6.36257 0.90417,9.54624 0.28672,3.52788 0.33614,7.05943 0.65741,10.58474 0.22489,3.75992 0.84735,7.46217 1.53263,11.15946 0.52081,3.91117 1.26513,7.7802 2.00398,11.65412 0.82204,3.77609 1.58734,7.56246 2.52629,11.31187 0.93714,3.21262 1.72207,6.45159 2.43732,9.71929 0.71543,3.3347 1.87749,6.5247 2.53457,9.8739 0.6888,3.4221 1.43433,6.8348 2.07635,10.266 0.27882,3.1259 1.06113,6.1382 1.77309,9.1817 0.69195,3.163 0.88324,6.396 1.00535,9.6215 -0.0598,2.7942 0.1333,5.5507 0.4858,8.3177 0.326,2.0951 0.48077,4.2079 0.55888,6.3249 0.0624,2.0961 0.0447,4.1934 0.0393,6.2901 -0.0144,2.8136 -0.0233,5.6272 -0.022,8.4409 0.002,2.8926 0.003,5.7852 -0.003,8.6778 0.007,2.675 1.2e-4,5.35 0.0192,8.025 -0.12991,2.2853 0.17989,4.5338 0.6472,6.7636 0.5896,2.0049 0.93025,4.0649 1.45192,6.0858 0.51811,2.4384 0.88351,4.9134 1.26685,7.3782 0.33016,2.7171 0.5322,5.3844 1.38209,7.9985 1.1687,2.686 2.7805,5.1985 4.4621,7.5942 1.24766,1.9627 3.11014,3.3056 4.75559,4.88 1.37251,1.3889 2.23044,3.0227 3.01454,4.786 0.7143,1.7848 1.98941,3.2045 3.11414,4.7272 1.23861,2.445 3.36445,4.1731 5.26975,6.0741 1.76665,1.798 3.61361,3.4993 5.35293,5.3255 1.76744,1.2729 3.02723,3.0258 4.48049,4.6143 0.27865,0.2456 0.53345,0.5213 0.83596,0.7368 0.30239,0.2155 0.66149,0.3413 0.96905,0.5493 1.40829,0.9523 2.67672,2.0794 3.90608,3.2477 1.55495,1.3678 2.96162,2.9761 4.69604,4.1209 2.02379,0.822 4.23345,0.8409 6.38373,0.9004 1.81202,-0.098 3.6681,0.1984 5.47604,0.013 3.6621,-0.3748 -1.30496,-0.1247 1.60844,-0.2451 1.25235,0 2.49534,0.5117 3.55092,1.1727 1.50679,0.6477 2.25242,2.1798 3.49377,3.1622 1.18675,0.7608 2.49755,0.869 3.8614,0.9318 1.57609,0.036 3.15249,0 4.72873,0 1.89127,-0.01 3.78252,-0.011 5.6738,-0.014 2.00798,0 4.01598,0.01 6.02396,0 2.19376,0.01 4.38746,-3e-4 6.58122,0.01 2.42862,-0.01 4.85725,0 7.28587,0 2.59996,0.01 5.19992,0 7.79988,7e-4 3.45886,0.01 6.91773,0.019 10.3766,0.027 4.74611,0.011 9.49216,0.019 14.23827,0.011 4.24751,-0.061 8.47466,-0.066 12.7051,0.3244 3.13251,0.3246 6.27455,0.5189 9.42193,0.6063 2.75622,0.057 5.51332,0.054 8.27001,0.049 2.56779,-0.012 5.13561,0 7.70342,0 2.72579,0.398 5.35543,1.2222 8.08446,1.6605 2.6418,0.3357 5.30969,0.349 7.96839,0.3705 2.87044,0.072 5.71415,0.5694 8.58196,0.7817 3.65246,0.2155 7.31306,0.221 10.97058,0.2383 3.44885,0.014 6.89755,-0.01 10.34625,-0.012 2.8314,-0.01 5.6627,-0.01 8.4941,-0.01 2.9845,0 5.969,0.01 8.9535,0 3.2242,0 6.4485,0.01 9.6727,0.01 3.8349,0.011 7.6697,0.017 11.5045,0.01 3.3732,-0.01 6.7464,-0.01 10.1195,-0.013 4.0152,0.1128 8.0105,-0.02 12.0143,-0.2967 6.0073,-0.4093 12.0299,-0.5117 18.0488,-0.5997 6.1058,0.1436 12.1534,-0.149 18.2109,-0.8845 5.4491,-0.6851 10.9357,-0.972 16.4217,-1.1369 4.7404,-0.1102 9.4821,-0.099 14.2234,-0.097 4.947,0.01 9.894,0.014 14.8409,0.022 5.1622,10e-4 10.3243,0 15.4864,0 4.2631,-0.061 8.5046,-0.076 12.7502,0.3207 3.1304,0.3239 6.27,0.5173 9.4152,0.6066 2.4413,0.046 4.8832,0.047 7.3249,0.048 3.0714,0.051 6.1188,0.5441 9.1827,0.783 2.571,0.2208 5.1002,0.7597 7.674,1.0148 2.2121,-0.041 4.322,0.3847 6.4787,0.7774 0.324,0.046 0.648,0.092 0.972,0.1384 0,0 -12.2961,8.6425 -12.2961,8.6425 l 0,0 c -0.3337,-0.058 -0.6673,-0.1157 -1.001,-0.1735 -2.1157,-0.4148 -4.2417,-0.534 -6.3892,-0.7022 -2.5456,-0.3182 -5.0652,-0.8358 -7.6284,-0.9989 -3.0349,-0.2829 -6.0667,-0.7523 -9.122,-0.6697 -2.4488,-7e-4 -4.8984,0.01 -7.3456,-0.097 -3.1441,-0.1281 -6.2769,-0.4012 -9.4082,-0.7077 -4.201,-0.3381 -8.409,-0.2441 -12.6209,-0.2545 -5.1564,-0.01 -10.3127,-0.01 -15.469,-0.01 -4.9563,0 -9.9126,0 -14.8688,-8e-4 -4.7272,6e-4 -9.4554,1e-4 -14.1813,0.1249 -5.4493,0.1832 -10.8943,0.5106 -16.3055,1.2048 -6.0804,0.6688 -12.162,0.8134 -18.2781,0.7507 -6.0286,0.097 -12.059,0.2417 -18.0721,0.7145 -4.0522,0.2769 -8.1018,0.3127 -12.1629,0.2787 -3.3611,-0.01 -6.7223,-0.01 -10.0834,-0.013 -3.8437,-0.01 -7.6875,-10e-4 -11.5312,0.01 -3.2291,0 -6.4582,0 -9.6872,0.01 -2.9871,0 -5.9743,5e-4 -8.9613,0 -2.8268,0 -5.65366,0 -8.48049,-5e-4 -3.43883,0 -6.87766,-0.011 -10.31646,-0.023 -3.69295,-0.026 -7.39062,-0.047 -11.0763,-0.3005 -2.84201,-0.2505 -5.6711,-0.7216 -8.53047,-0.6923 -2.71447,-0.046 -5.44174,-0.09 -8.12395,-0.5567 -2.63845,-0.5029 -5.2248,-1.382 -7.92264,-1.4548 -2.56942,0 -5.13884,0.015 -7.70827,0.01 -2.765,-0.01 -5.53051,-0.01 -8.29442,-0.096 -3.14534,-0.1326 -6.28033,-0.3961 -9.41286,-0.7081 -4.18932,-0.3411 -8.38596,-0.2394 -12.58615,-0.2509 -4.75577,-0.01 -9.51148,-6e-4 -14.26724,0.011 -3.48404,0.01 -6.96806,0.017 -10.45208,0.027 -2.6006,0 -5.20122,0 -7.80181,7e-4 -2.43115,9e-4 -4.8623,0.01 -7.29344,0 -2.20072,0.01 -4.40139,0 -6.60211,0.01 -2.01013,-0.01 -4.02028,0 -6.03041,0.01 -1.89122,0 -3.78241,0.01 -5.67359,0.02 -1.60967,0.016 -3.22442,0.035 -4.82943,-0.1061 -1.60299,-0.2105 -3.09043,-0.6864 -4.37081,-1.7171 -1.08429,-0.9994 -1.89892,-2.2933 -3.32404,-2.8541 -1.02984,-0.3922 -1.95238,-0.7072 -3.06952,-0.4879 -2.35745,0.2774 -4.75277,0.028 -7.11873,0.04 -2.39062,-0.122 -4.82625,-0.3084 -6.91713,-1.5968 -1.69665,-1.308 -3.21226,-2.8514 -4.77889,-4.3089 -1.80586,-1.7048 -3.91432,-2.9876 -5.76573,-4.624 -1.45116,-1.5786 -2.7692,-3.2577 -4.47246,-4.5862 -1.72398,-1.8106 -3.55809,-3.5034 -5.2827,-5.3134 -1.97897,-1.9288 -4.11901,-3.7642 -5.43929,-6.238 -1.20717,-1.6058 -2.53443,-3.1231 -3.29567,-5.0145 -0.68789,-1.583 -1.45883,-3.0379 -2.70482,-4.2654 -1.75403,-1.6101 -3.54494,-3.168 -4.87352,-5.18 -1.73098,-2.5344 -3.42217,-5.1497 -4.65725,-7.9635 -0.94298,-2.6838 -1.29059,-5.3944 -1.51462,-8.2216 -0.37093,-2.4142 -0.79964,-4.8211 -1.24077,-7.2207 -0.53267,-2.0379 -0.88397,-4.1068 -1.45125,-6.1373 -0.56628,-2.3097 -0.92189,-4.6733 -0.81144,-7.0574 0.019,-2.6815 0.0118,-5.363 0.0192,-8.0446 -0.006,-2.8922 -0.005,-5.7845 -6.9e-4,-8.6767 0.003,-2.8081 -0.002,-5.6163 -0.011,-8.4244 -0.003,-2.079 -0.005,-4.1582 -0.0375,-6.2371 -0.0538,-2.0777 -0.16439,-4.1543 -0.45678,-6.2142 -0.36706,-2.8162 -0.64413,-5.6096 -0.52754,-8.4579 -0.0835,-3.1364 -0.22754,-6.2841 -0.86494,-9.3658 -0.7009,-3.0691 -1.59446,-6.0855 -1.79831,-9.2471 -0.61232,-3.4352 -1.36203,-6.8461 -2.04442,-10.2677 -0.62768,-3.3423 -1.82448,-6.4997 -2.54348,-9.8184 -0.73942,-3.2486 -1.42469,-6.5007 -2.3916,-9.6938 -0.97542,-3.77329 -1.6796,-7.60252 -2.54557,-11.4012 -0.75428,-3.87351 -1.53074,-7.73802 -2.01395,-11.65813 -0.70449,-3.73469 -1.40992,-7.46612 -1.60134,-11.27227 -0.36044,-3.52174 -0.46331,-7.04534 -0.68206,-10.57767 -0.29745,-3.17189 -0.80758,-6.31972 -0.91835,-9.5071 -0.29023,-2.67783 -0.91882,-5.27262 -1.62983,-7.86858 -0.34492,-2.82607 -0.1639,-5.6916 -0.49397,-8.52421 -0.3044,-3.30558 -0.7873,-6.59926 -0.6699,-9.92811 -0.0597,-3.05898 -0.14311,-6.12137 -0.48846,-9.16417 -0.33163,-2.87562 -0.65883,-5.73572 -0.61334,-8.63711 -0.11975,-2.23068 -0.29845,-4.46048 -0.76456,-6.6502 -0.26145,-1.69971 -0.1653,-3.41688 -0.17018,-5.13409 -0.002,-1.55002 0.008,-3.09997 -10e-4,-4.64996 -0.0141,-1.78417 -0.0391,-3.57082 -0.22278,-5.3473 -0.26977,-2.1089 -0.79969,-4.19859 -0.77678,-6.3324 -0.0314,-1.96874 -0.0616,-3.94504 -0.34247,-5.89749 -0.30438,-1.84032 -0.82864,-3.64455 -0.70991,-5.52965 -0.0794,-1.77957 -0.22296,-3.55899 -0.63746,-5.29708 -0.44578,-1.62739 -0.62485,-3.29887 -1.18642,-4.89175 -0.71527,-1.54129 -1.60422,-2.9776 -1.81728,-4.70245 -0.464,-1.43712 -0.61812,-2.97134 -1.34126,-4.30664 -1.34493,-1.51236 -2.55204,-3.05815 -3.50899,-4.8534 -1.05599,-1.43605 -1.81355,-2.63995 -2.35583,-4.34161 -1.18787,-1.53857 -2.36018,-3.10799 -3.68497,-4.52533 -2.91509,-2.04831 -6.43707,-3.15272 -9.84293,-4.08411 0,0 12.35165,-8.48095 12.35165,-8.48095 z"
           inkscape:connector-curvature="0" />
        <path
           style="display:inline;fill:#0f77db;fill-opacity:1;stroke:#0f77db;stroke-width:1;stroke-linecap:butt;stroke-linejoin:miter;stroke-miterlimit:4;stroke-dasharray:none;stroke-dashoffset:3.20000005;stroke-opacity:1"
           id="path15695"
           d="m 743.50639,952.79855 c 1.78961,3.16242 4.01324,6.04535 5.97482,9.10399 1.41214,2.1556 2.62371,4.41721 3.57444,6.81093 0.43479,1.79695 1.58468,3.24721 2.32843,4.91452 0.69287,1.87917 0.69147,3.88231 0.91208,5.84436 0.62915,2.30046 1.22062,4.61164 1.84839,6.9134 0.61084,2.26428 0.88998,4.59811 1.04084,6.93296 0.0206,1.9167 -0.0442,3.36363 0.6961,5.13865 0.73096,1.99364 1.54922,3.91714 1.96316,6.00884 0.28867,2.0445 0.83149,4.0358 1.14222,6.0764 0.24579,1.8694 0.28475,3.7462 0.54373,5.6151 0.38976,2.6251 0.59418,5.2734 0.6874,7.9243 0.26668,2.5233 0.65621,5.0274 0.88938,7.5552 0.35751,2.106 0.76849,4.2047 1.2438,6.2876 0.59792,2.4203 0.77815,4.908 0.9048,7.389 -0.14321,2.1412 0.79876,4.0382 1.34145,6.0524 0.24346,1.7669 0.84425,3.4385 1.28712,5.1556 0.29024,1.759 0.72212,3.4886 1.03228,5.2438 0.50523,2.1549 0.88553,4.3388 1.47477,6.4733 0.61884,2.1227 1.25629,4.2168 1.62517,6.4007 0.28347,2.1648 0.66226,4.328 1.1677,6.4526 0.61751,2.0275 0.9477,4.1099 1.10671,6.2181 0.25388,3.0538 1.48908,5.8893 2.20533,8.8455 0.67255,2.9209 1.52415,5.7811 2.54142,8.5985 0.78471,2.0737 1.56241,4.1502 2.28986,6.2448 0.90652,1.8004 1.52744,3.7214 2.38096,5.5442 1.05405,1.9793 2.03506,3.9944 2.85843,6.0813 0.88211,2.0654 1.41344,4.2451 1.99973,6.406 0.6497,2.6029 1.89394,4.9801 3.20953,7.2981 1.45756,2.1841 2.11713,4.7508 3.19269,7.1194 1.07628,2.3581 2.71765,4.3674 4.15249,6.5053 1.8615,2.4632 4.2648,4.4272 6.47364,6.5613 1.86397,1.5383 3.78754,3.0915 5.81352,4.4111 1.69973,1.1248 3.551,1.7533 5.55437,2.0187 3.09812,0.7266 6.27407,1.0105 9.41915,1.4744 3.72727,0.5585 7.49839,0.6807 11.26026,0.7651 3.21022,0.05 6.42093,0.031 9.63137,0.025 2.65296,0.086 5.28362,0.5683 7.93778,0.7776 2.95785,0.4871 5.91475,0.892 8.85835,1.4525 2.9425,0.4029 5.83364,1.0665 8.78324,1.4287 2.97309,0.6959 5.99899,1.0528 9.04108,1.2469 2.68939,0.077 5.34202,0.084 7.9996,0.5153 2.3133,0.253 4.54515,0.9032 6.83979,1.2753 1.80053,0.043 3.21835,0.4292 4.88713,0.9903 1.13137,0.3087 2.30242,0.3359 3.4669,0.3603 1.86056,0.1747 3.52788,-0.7297 5.28953,-1.2102 2.63178,-0.6579 5.36725,-0.6985 8.06543,-0.7505 3.66693,-0.034 7.33402,-0.032 11.00106,-0.035 3.75944,-0.1292 7.48964,0.3832 11.23052,0.674 3.32297,0.2548 6.65595,0.3023 9.98683,0.3413 3.47983,0.012 6.95968,0.013 10.43952,0.025 4.59737,0.026 9.19476,0 13.79213,-0.01 3.76962,0.3228 7.5346,0.6706 11.31445,0.8505 4.11799,0.1613 8.23982,0.1608 12.36033,0.1674 3.5472,0 7.0943,-0.023 10.6415,-0.016 4.1612,0.014 8.3224,0.01 12.4836,0.016 4.591,-10e-5 9.1821,0 13.7732,0 5.226,0.014 10.4519,0.01 15.6779,0.01 4.5925,-4e-4 9.185,-0.015 13.7775,-0.024 3.5477,-0.018 7.0953,-0.01 10.643,0 4.2545,-0.1331 8.4845,0.373 12.7226,0.6602 4.4028,0.2696 8.8146,0.3189 13.2241,0.3507 3.5391,0.014 7.0781,0 10.6171,-0.01 3.8811,-0.01 7.6819,0.9525 11.5243,1.4329 4.5843,0.4802 9.1982,0.5516 13.8034,0.5951 4.2095,0.031 8.4192,0.014 12.6288,0.018 3.9316,-0.01 7.8631,-0.025 11.7947,-0.017 4.1674,0.01 8.3348,0.016 12.5022,-0.01 2.8012,-0.016 5.6024,-0.015 8.4036,-0.016 3.2825,0 6.565,0.017 9.8475,0.021 4.0948,0 8.1896,0.019 12.2844,0 3.0373,-0.015 6.0746,-0.018 9.112,-0.021 1.8615,-0.012 3.7231,-0.01 5.5847,-0.014 0,0 -12.1594,8.8343 -12.1594,8.8343 l 0,0 c -1.8489,-0.01 -3.6979,0 -5.5468,-0.014 -3.0181,0 -6.0361,-0.01 -9.0542,-0.021 -4.0961,-0.018 -8.1923,0.01 -12.2885,0 -3.3021,0 -6.6042,0.018 -9.9063,0.021 -2.7862,-10e-4 -5.5725,1e-4 -8.3587,-0.016 -4.1606,-0.024 -8.3214,-0.016 -12.4821,-0.01 -3.9238,0.011 -7.8477,2e-4 -11.7716,0 -4.2163,0.013 -8.4328,0.019 -12.6489,-0.032 -4.6407,-0.093 -9.2916,-0.189 -13.906,-0.7329 -3.8065,-0.52 -7.5982,-1.3799 -11.4606,-1.2383 -3.5249,0 -7.0499,-0.01 -10.5746,-0.044 -4.4271,-0.051 -8.8557,-0.1335 -13.2747,-0.4259 -4.224,-0.3078 -8.4458,-0.7113 -12.6872,-0.5567 -3.545,0 -7.09,0.015 -10.6351,0 -4.5706,-0.01 -9.1412,-0.024 -13.7119,-0.024 -5.2338,0 -10.4676,-0.01 -15.7014,0.01 -4.5956,0.01 -9.1913,0 -13.7869,0.01 -4.1785,0.01 -8.3571,0 -12.53568,0.023 -3.53624,0.011 -7.07254,-6e-4 -10.60877,-0.014 -4.14421,-0.017 -8.29101,-0.022 -12.43179,-0.2072 -3.7534,-0.2164 -7.49059,-0.6386 -11.24661,-0.8024 -4.59533,-0.01 -9.1907,-0.028 -13.78601,0 -3.49642,0.016 -6.99297,0.033 -10.48927,-0.012 -3.34634,-0.04 -6.69312,-0.1468 -10.02822,-0.4385 -3.72024,-0.3136 -7.43881,-0.7076 -11.17923,-0.564 -3.66059,-0.011 -7.32256,-0.029 -10.98184,0.084 -2.65593,0.1244 -5.33176,0.2632 -7.88518,1.0771 -1.85829,0.5605 -3.66798,1.1316 -5.63692,0.8545 -1.26288,-0.094 -2.51907,-0.2561 -3.71281,-0.7044 -1.52147,-0.5256 -3.12794,-0.5379 -4.70245,-0.8391 -2.26579,-0.4383 -4.51003,-0.983 -6.80789,-1.2409 -2.62201,-0.339 -5.26903,-0.2299 -7.9019,-0.4541 -3.0587,-0.2585 -6.07966,-0.7401 -9.09361,-1.3188 -2.95539,-0.4312 -5.88308,-1.0323 -8.83443,-1.4894 -2.90922,-0.5439 -5.84445,-0.9354 -8.77734,-1.3263 -2.6197,-0.2473 -5.22806,-0.706 -7.86554,-0.6688 -3.19606,0 -6.39222,-0.021 -9.58733,-0.1048 -3.80694,-0.1062 -7.61796,-0.2872 -11.38356,-0.8972 -3.17594,-0.4612 -6.37689,-0.7544 -9.51242,-1.4616 -2.13251,-0.46 -4.13501,-1.2835 -5.92718,-2.5489 -2.01947,-1.4743 -4.0581,-2.9499 -5.89603,-4.6494 -2.27618,-2.2118 -4.74763,-4.2552 -6.65424,-6.8137 -1.49418,-2.1917 -3.15297,-4.2868 -4.26569,-6.7124 -1.10912,-2.3125 -1.71056,-4.8508 -3.1181,-7.0202 -1.39277,-2.4185 -2.69729,-4.9059 -3.43234,-7.6119 -0.56933,-2.1114 -1.07227,-4.2482 -1.9377,-6.2637 -0.77235,-2.0663 -1.75066,-4.0467 -2.803,-5.9838 -0.89054,-1.8662 -1.52669,-3.8405 -2.45361,-5.6919 -0.718,-2.0942 -1.51119,-4.1612 -2.25762,-6.2449 -1.01374,-2.8776 -1.90426,-5.7841 -2.59119,-8.7595 -0.70101,-3.0397 -1.95489,-5.9295 -2.37154,-9.0324 -0.13134,-2.0228 -0.37894,-4.0338 -0.99089,-5.976 -0.57664,-2.1482 -0.89982,-4.3828 -1.2227,-6.5796 -0.31494,-2.143 -0.93344,-4.1794 -1.55388,-6.2491 -0.5985,-2.185 -0.98795,-4.4089 -1.5513,-6.6034 -0.27972,-1.7279 -0.77865,-3.4004 -1.0077,-5.1344 -0.39606,-1.7249 -1.06542,-3.377 -1.24137,-5.1528 -0.53587,-2.1162 -1.61862,-4.0998 -1.47642,-6.3407 -0.0886,-2.3967 -0.2218,-4.8028 -0.77907,-7.1451 -0.50225,-2.1497 -0.94116,-4.3075 -1.34828,-6.4782 -0.18483,-2.5578 -0.5493,-5.0901 -0.90126,-7.6293 -0.0884,-2.5951 -0.2196,-5.1947 -0.62631,-7.7628 -0.302,-1.8701 -0.46045,-3.7226 -0.57378,-5.6136 -0.26396,-2.0316 -0.81307,-4.0011 -1.09585,-6.0271 -0.345,-1.999 -1.11564,-3.8182 -1.83247,-5.7045 -0.0641,-0.1471 -0.68243,-1.5566 -0.71543,-1.6707 -0.36892,-1.276 -0.0686,-2.6379 -0.21076,-3.9389 -0.10098,-2.24148 -0.29649,-4.48931 -0.8682,-6.6669 -0.63946,-2.36079 -1.22253,-4.73443 -1.95676,-7.06846 -0.30377,-1.8187 -0.19065,-3.69357 -0.7459,-5.47359 -0.71487,-1.70003 -1.93015,-3.14758 -2.32687,-4.97887 -0.88897,-2.31156 -2.01469,-4.51854 -3.37571,-6.59049 -1.95333,-3.10002 -4.12222,-6.04768 -6.05669,-9.15898 0,0 13.00223,-7.47826 13.00223,-7.47826 z"
           inkscape:connector-curvature="0" />
        <path
           style="display:inline;fill:#07aac1;fill-opacity:1;stroke:#07aac1;stroke-width:1;stroke-linecap:butt;stroke-linejoin:miter;stroke-miterlimit:4;stroke-dasharray:none;stroke-dashoffset:3.20000005;stroke-opacity:1"
           id="path15697"
           d="m 744.68875,1124.7869 c 2.50305,0.2106 5.05652,-0.198 7.5548,0.023 0.82894,0.073 2.47859,0.4971 3.31156,0.6965 2.66401,0.4772 5.21695,1.3663 7.59808,2.6462 1.71275,0.8554 2.65334,2.4916 3.41825,4.1727 0.79422,1.4262 1.59583,2.8485 2.33141,4.3063 0.86524,1.5951 1.05865,3.3721 1.44988,5.1045 0.64261,1.3723 1.42606,2.652 2.15695,3.9771 0.76542,1.6407 1.50622,3.2894 2.33586,4.8984 1.04136,1.0733 1.90432,2.3224 3.02773,3.3148 1.14711,1.0752 2.49937,1.8975 3.68378,2.9159 1.18227,0.9939 2.27501,2.0665 3.30709,3.2185 1.32411,1.0331 2.57695,2.1239 4.05068,2.9404 2.1096,0.809 4.18744,1.7151 6.21361,2.734 2.12669,1.5444 4.69335,1.8643 7.17421,2.4508 2.48241,0.7407 5.08517,0.7372 7.615,1.1723 2.39858,0.5903 4.8839,0.5641 7.30111,0.9988 2.73253,0.5744 5.53604,0.5712 8.28355,1.0021 2.62042,0.5248 5.2835,0.7198 7.94793,0.8368 3.12358,0.096 6.24929,0.093 9.37404,0.1085 4.73288,0 9.46573,0.01 14.19859,0.019 6.76316,0.024 13.52636,0.025 20.28956,0.027 8.16755,0.027 16.33512,0.019 24.50269,0.02 7.72291,0.01 15.44579,-0.012 23.16868,-0.025 4.98621,-0.027 9.97241,-0.042 14.95869,-0.047 4.49669,0.01 8.99337,0 13.49006,0 5.11143,-0.1543 10.1998,0.1779 15.29584,0.5095 5.31106,0.347 10.63339,0.4356 15.95389,0.4942 5.95355,0.045 11.90734,0.035 17.86103,0.05 6.3075,-0.01 12.615,0 18.9226,-0.017 5.1104,-0.039 10.2033,-0.1054 15.2983,0.305 3.6744,0.3537 7.3604,0.5257 11.0496,0.6096 4.2556,0.081 8.5123,0.068 12.7684,0.091 6.9138,-0.018 13.8295,0.1594 20.7392,-0.108 6.8089,-0.6832 13.6176,-1.3047 20.4538,-1.6301 6.6027,-0.2398 13.2108,-0.2648 19.8171,-0.2845 5.8109,0 11.6217,0 17.4326,-0.013 4.5644,-0.3142 9.1199,-0.6959 13.6932,-0.8561 5.4492,-0.1497 10.9017,-0.1343 16.3525,-0.1396 5.2753,-0.1793 10.5298,0.2434 15.7854,0.6211 2.951,0.3014 5.7932,1.0973 8.6746,1.7436 2.6684,0.4354 5.3026,0.9891 7.9956,1.2774 3.7111,0.6505 7.4604,1.0131 11.2195,1.2228 1.9111,0.096 3.8245,0.1167 5.7376,0.1344 0,0 -12.1479,8.7976 -12.1479,8.7976 l 0,0 c -1.9102,-0.041 -3.82,-0.1105 -5.7271,-0.2311 -3.7782,-0.27 -7.5324,-0.7399 -11.2817,-1.2757 -2.728,-0.3464 -5.4342,-0.8526 -8.1298,-1.3908 -2.7949,-0.6819 -5.5962,-1.3427 -8.4696,-1.6079 -5.1975,-0.4284 -10.3969,-0.7759 -15.6171,-0.5979 -5.462,0.017 -10.9257,0.027 -16.3846,0.2345 -4.5717,0.2147 -9.1304,0.6347 -13.7047,0.7877 -5.7908,-0.019 -11.5817,-0.035 -17.3725,-0.024 -6.5882,0.016 -13.179,0.031 -19.7618,0.3307 -6.8234,0.3604 -13.6156,1.0514 -20.4265,1.5784 -6.9556,0.1873 -13.9149,0.083 -20.8725,0.1451 -4.2973,0.022 -8.5956,0.033 -12.8923,-0.054 -3.6853,-0.1303 -7.3653,-0.3441 -11.0362,-0.7048 -5.0461,-0.359 -10.1003,-0.2653 -15.1567,-0.2683 -6.2968,-0.01 -12.5936,0 -18.89038,-0.01 -5.9729,0.018 -11.94599,0.023 -17.91874,-0.029 -5.34364,-0.063 -10.6881,-0.1704 -16.02075,-0.5444 -5.08841,-0.3335 -10.17342,-0.5389 -15.27459,-0.4054 -4.50035,4e-4 -9.00068,0 -13.50102,0 -4.94264,-0.01 -9.88521,-0.02 -14.82779,-0.048 -7.7001,-0.013 -15.40021,-0.031 -23.10034,-0.025 -8.1862,0 -16.37239,-0.01 -24.55858,0.02 -6.78946,0 -13.57894,0 -20.36835,0.031 -4.75701,0.013 -9.51402,0.034 -14.27106,0.032 -3.16499,0.011 -6.33339,0.048 -9.49529,-0.1189 -2.68389,-0.1715 -5.3526,-0.4638 -8.00091,-0.9418 -2.77714,-0.2968 -5.56377,-0.5068 -8.31561,-1.0101 -2.43758,-0.2859 -4.88404,-0.4982 -7.29195,-0.9995 -2.57809,-0.3071 -5.16388,-0.5633 -7.67323,-1.2764 -2.59738,-0.5711 -5.13404,-1.2461 -7.39602,-2.7132 -2.08378,-0.9747 -4.21219,-1.8504 -6.29012,-2.83 -1.54242,-0.9628 -2.98184,-2.0865 -4.33622,-3.2989 -0.99002,-1.0867 -2.0165,-2.1208 -3.17614,-3.0313 -1.26648,-0.9722 -2.54454,-1.9296 -3.72538,-3.0084 -1.18768,-1.1626 -2.26491,-2.454 -3.29322,-3.7559 -0.82456,-1.5917 -1.54175,-3.2349 -2.29952,-4.8587 -0.81728,-1.4279 -1.65702,-2.8301 -2.36637,-4.3172 -0.43841,-1.6053 -0.44789,-3.3218 -1.26876,-4.8247 -0.74931,-1.4805 -1.60143,-2.9034 -2.39306,-4.3611 -0.6072,-1.4266 -1.3717,-2.661 -2.83693,-3.3215 -2.34088,-1.1134 -4.79396,-1.8932 -7.34747,-2.3561 -3.53527,-0.7003 -7.12718,-0.4362 -10.71408,-0.4309 0,0 12.13833,-8.8191 12.13833,-8.8191 z"
           inkscape:connector-curvature="0" />
        <g
           style="display:inline"
           id="g15713"
           transform="matrix(0.12496377,0,0,0.12503627,672.13267,1742.793)">
          <path
             d="m 524.976,-6491.47 19.072,6.21 19.072,18.51 19.076,30.47 19.072,41.85 19.072,52.47 19.076,62.14 19.072,70.71 19.072,78.07 19.076,84.12 19.072,88.83 19.071,92.16 19.076,94.19 19.072,94.89 19.072,94.43 19.084,92.85 19.076,90.29 19.072,86.88 19.072,82.77 19.075,78.12 19.072,73.03 19.072,67.67 19.076,62.17 19.072,56.63 19.072,51.15 19.078,45.84 19.07,40.74 19.07,35.94 19.08,31.44 19.07,27.33 19.07,23.54 19.08,20.15 19.07,17.11 19.07,14.42 19.08,12.08 19.07,10.03 19.07,8.29 19.08,6.78 19.07,5.52 19.07,4.45 19.08,3.58 19.07,2.85 19.07,2.25 19.08,1.77 19.08,1.38 19.07,1.07 19.07,0.82 19.08,0.63 19.07,0.48 19.07,0.36 19.08,0.27 19.07,0.2 19.07,0.15 19.08,0.11 19.07,0.08 19.07,0.06 19.08,0.04 19.07,0.03 19.07,0.02 19.08,0.02 19.07,0.01 19.07,0 19.08,0.01 19.07,0 19.07,0.01 2574.94,0"
             style="fill:none;stroke:#000000;stroke-width:31.99999428;stroke-linecap:butt;stroke-linejoin:bevel;stroke-miterlimit:10;stroke-dasharray:213.33259287, 127.99955572;stroke-dashoffset:0;stroke-opacity:1"
             id="path15715"
             inkscape:connector-curvature="0" />
        </g>
        <g
           id="g16257"
           transform="translate(625.99993,0)">
          <g
             transform="matrix(0.12496377,0,0,0.12503627,23.795856,1742.793)"
             id="g16259"
             style="display:inline;stroke-width:15.99999714;stroke-miterlimit:10;stroke-dasharray:none">
            <path
               inkscape:connector-curvature="0"
               id="path16261"
               style="fill:none;stroke:#352a87;stroke-width:15.99999714;stroke-linecap:butt;stroke-linejoin:round;stroke-miterlimit:10;stroke-dasharray:none;stroke-opacity:1"
               d="m 2465.3,-7211.46 300.06,0" />
          </g>
          <path
             d="m 331.86901,864.23552 37.49663,0"
             style="display:inline;fill:none;stroke:#0f77db;stroke-width:1.99999976;stroke-linecap:butt;stroke-linejoin:round;stroke-miterlimit:10;stroke-dasharray:none;stroke-opacity:1"
             id="path16263"
             inkscape:connector-curvature="0" />
          <g
             transform="matrix(0.12496377,0,0,0.12503627,23.795856,1742.793)"
             id="g16265"
             style="display:inline;stroke-width:15.99999714;stroke-miterlimit:10;stroke-dasharray:none">
            <path
               inkscape:connector-curvature="0"
               id="path16267"
               style="fill:none;stroke:#07aac1;stroke-width:15.99999714;stroke-linecap:butt;stroke-linejoin:round;stroke-miterlimit:10;stroke-dasharray:none;stroke-opacity:1"
               d="m 2465.3,-6841.39 300.06,0" />
          </g>
          <g
             style="display:inline"
             transform="matrix(0.12496377,0,0,0.12503627,23.795856,1719.6582)"
             id="g16269">
            <path
               inkscape:connector-curvature="0"
               id="path16271"
               style="fill:none;stroke:#000000;stroke-width:15.00259972;stroke-linecap:butt;stroke-linejoin:bevel;stroke-miterlimit:10;stroke-dasharray:100.017, 60.0102;stroke-dashoffset:0;stroke-opacity:1"
               d="m 2465.3,-6471.33 300.06,0" />
          </g>
          <flowRoot
             xml:space="preserve"
             id="flowRoot16273"
             style="font-style:normal;font-variant:normal;font-weight:normal;font-stretch:normal;font-size:22.5px;line-height:125%;font-family:Arial;-inkscape-font-specification:'Arial, Normal';text-align:start;letter-spacing:0px;word-spacing:0px;writing-mode:lr-tb;text-anchor:start;fill:#000000;fill-opacity:1;stroke:none;stroke-width:1px;stroke-linecap:butt;stroke-linejoin:miter;stroke-opacity:1"
             transform="translate(-29.999999,-1.671582)"><flowRegion
               id="flowRegion16275"><rect
                 id="rect16277"
                 width="182.4823"
                 height="28.294434"
                 x="410.12195"
                 y="828.17108" /></flowRegion><flowPara
               id="flowPara16279"
               style="font-style:normal;font-variant:normal;font-weight:normal;font-stretch:normal;font-size:19.99999809px;line-height:125%;font-family:Arial;-inkscape-font-specification:'Arial, Normal';text-align:start;writing-mode:lr-tb;text-anchor:start">Ligand Radius = 0</flowPara></flowRoot>          <flowRoot
             style="font-style:normal;font-variant:normal;font-weight:normal;font-stretch:normal;font-size:14.99999809px;line-height:125%;font-family:Arial;-inkscape-font-specification:'Arial, Normal';text-align:start;letter-spacing:0px;word-spacing:0px;writing-mode:lr-tb;text-anchor:start;fill:#000000;fill-opacity:1;stroke:none;stroke-width:1px;stroke-linecap:butt;stroke-linejoin:miter;stroke-opacity:1"
             id="flowRoot16281"
             xml:space="preserve"
             transform="translate(-29.999999,21.435829)"><flowRegion
               id="flowRegion16283"><rect
                 y="828.17108"
                 x="410.12195"
                 height="29.294434"
                 width="210.71582"
                 id="rect16285"
                 style="font-style:normal;font-variant:normal;font-weight:normal;font-stretch:normal;font-size:14.99999809px;line-height:125%;font-family:Arial;-inkscape-font-specification:'Arial, Normal';text-align:start;writing-mode:lr-tb;text-anchor:start" /></flowRegion><flowPara
               style="font-style:normal;font-variant:normal;font-weight:normal;font-stretch:normal;font-size:19.99999809px;line-height:125%;font-family:Arial;-inkscape-font-specification:'Arial, Normal';text-align:start;writing-mode:lr-tb;text-anchor:start"
               id="flowPara16287">Ligand Radius = small</flowPara></flowRoot>          <flowRoot
             transform="translate(-29.999999,44.57129)"
             xml:space="preserve"
             id="flowRoot16289"
             style="font-style:normal;font-variant:normal;font-weight:normal;font-stretch:normal;font-size:14.99999809px;line-height:125%;font-family:Arial;-inkscape-font-specification:'Arial, Normal';text-align:start;letter-spacing:0px;word-spacing:0px;writing-mode:lr-tb;text-anchor:start;fill:#000000;fill-opacity:1;stroke:none;stroke-width:1px;stroke-linecap:butt;stroke-linejoin:miter;stroke-opacity:1"><flowRegion
               id="flowRegion16291"><rect
                 id="rect16293"
                 width="205.4823"
                 height="31.294434"
                 x="410.12195"
                 y="828.17108"
                 style="font-style:normal;font-variant:normal;font-weight:normal;font-stretch:normal;font-size:14.99999809px;line-height:125%;font-family:Arial;-inkscape-font-specification:'Arial, Normal';text-align:start;writing-mode:lr-tb;text-anchor:start" /></flowRegion><flowPara
               style="font-style:normal;font-variant:normal;font-weight:normal;font-stretch:normal;font-size:19.99999809px;line-height:125%;font-family:Arial;-inkscape-font-specification:'Arial, Normal';text-align:start;writing-mode:lr-tb;text-anchor:start"
               id="flowPara16295">Ligand Radius = large</flowPara></flowRoot>          <flowRoot
             style="font-style:normal;font-variant:normal;font-weight:normal;font-stretch:normal;font-size:14.99999809px;line-height:125%;font-family:Arial;-inkscape-font-specification:'Arial, Normal';text-align:start;letter-spacing:0px;word-spacing:0px;writing-mode:lr-tb;text-anchor:start;fill:#000000;fill-opacity:1;stroke:none;stroke-width:1px;stroke-linecap:butt;stroke-linejoin:miter;stroke-opacity:1"
             id="flowRoot16297"
             xml:space="preserve"
             transform="translate(-29.084472,69.694713)"><flowRegion
               id="flowRegion16299"><rect
                 y="828.17108"
                 x="410.12195"
                 height="29.294424"
                 width="147.48227"
                 id="rect16301"
                 style="font-style:normal;font-variant:normal;font-weight:normal;font-stretch:normal;font-size:14.99999809px;line-height:125%;font-family:Arial;-inkscape-font-specification:'Arial, Normal';text-align:start;writing-mode:lr-tb;text-anchor:start" /></flowRegion><flowPara
               style="font-style:normal;font-variant:normal;font-weight:normal;font-stretch:normal;font-size:19.99999809px;line-height:125%;font-family:Arial;-inkscape-font-specification:'Arial, Normal';text-align:start;writing-mode:lr-tb;text-anchor:start"
               id="flowPara16303">Worm-like chain</flowPara></flowRoot>        </g>
      </g>
    </g>
  </g>
</svg>
