<?xml version="1.0" encoding="UTF-8" standalone="no"?>
<!-- Created with Inkscape (http://www.inkscape.org/) -->

<svg
   xmlns:dc="http://purl.org/dc/elements/1.1/"
   xmlns:cc="http://creativecommons.org/ns#"
   xmlns:rdf="http://www.w3.org/1999/02/22-rdf-syntax-ns#"
   xmlns:svg="http://www.w3.org/2000/svg"
   xmlns="http://www.w3.org/2000/svg"
   xmlns:sodipodi="http://sodipodi.sourceforge.net/DTD/sodipodi-0.dtd"
   xmlns:inkscape="http://www.inkscape.org/namespaces/inkscape"
   id="svg2"
   version="1.1"
   inkscape:version="0.91 r13725"
   xml:space="preserve"
   width="1350"
   height="450"
   viewBox="0 0 1350 450"
   sodipodi:docname="StiffeningDiagram.svg"><metadata
     id="metadata8"><rdf:RDF><cc:Work
         rdf:about=""><dc:format>image/svg+xml</dc:format><dc:type
           rdf:resource="http://purl.org/dc/dcmitype/StillImage" /><dc:title></dc:title></cc:Work></rdf:RDF></metadata><defs
     id="defs6"><inkscape:path-effect
       effect="spiro"
       id="path-effect4391"
       is_visible="true" /><inkscape:path-effect
       effect="spiro"
       id="path-effect4385"
       is_visible="true" /><inkscape:path-effect
       effect="spiro"
       id="path-effect4381"
       is_visible="true" /><inkscape:path-effect
       is_visible="true"
       id="path-effect4373"
       effect="spiro" /><inkscape:path-effect
       effect="spiro"
       id="path-effect4297"
       is_visible="true" /><inkscape:path-effect
       effect="spiro"
       id="path-effect5253"
       is_visible="true" /><marker
       inkscape:stockid="Arrow1Sstart"
       orient="auto"
       refY="0"
       refX="0"
       id="Arrow1Sstart"
       style="overflow:visible"
       inkscape:isstock="true"><path
         id="path4690"
         d="M 0,0 5,-5 -12.5,0 5,5 0,0 Z"
         style="fill:#000000;fill-opacity:1;fill-rule:evenodd;stroke:#000000;stroke-width:1pt;stroke-opacity:1"
         transform="matrix(0.2,0,0,0.2,1.2,0)"
         inkscape:connector-curvature="0" /></marker><marker
       inkscape:stockid="Arrow1Mstart"
       orient="auto"
       refY="0"
       refX="0"
       id="Arrow1Mstart"
       style="overflow:visible"
       inkscape:isstock="true"><path
         id="path4684"
         d="M 0,0 5,-5 -12.5,0 5,5 0,0 Z"
         style="fill:#000000;fill-opacity:1;fill-rule:evenodd;stroke:#000000;stroke-width:1pt;stroke-opacity:1"
         transform="matrix(0.4,0,0,0.4,4,0)"
         inkscape:connector-curvature="0" /></marker><marker
       inkscape:isstock="true"
       style="overflow:visible"
       id="marker4990"
       refX="0"
       refY="0"
       orient="auto"
       inkscape:stockid="Arrow1Send"><path
         transform="matrix(-0.2,0,0,-0.2,-1.2,0)"
         style="fill:#000000;fill-opacity:1;fill-rule:evenodd;stroke:#000000;stroke-width:1pt;stroke-opacity:1"
         d="M 0,0 5,-5 -12.5,0 5,5 0,0 Z"
         id="path4992"
         inkscape:connector-curvature="0" /></marker><inkscape:path-effect
       is_visible="true"
       id="path-effect4988"
       effect="spiro" /><marker
       inkscape:stockid="Arrow1Send"
       orient="auto"
       refY="0"
       refX="0"
       id="Arrow1Send"
       style="overflow:visible"
       inkscape:isstock="true"
       inkscape:collect="always"><path
         id="path4693"
         d="M 0,0 5,-5 -12.5,0 5,5 0,0 Z"
         style="fill:#000000;fill-opacity:1;fill-rule:evenodd;stroke:#000000;stroke-width:1pt;stroke-opacity:1"
         transform="matrix(-0.2,0,0,-0.2,-1.2,0)"
         inkscape:connector-curvature="0" /></marker><marker
       inkscape:stockid="Arrow1Mend"
       orient="auto"
       refY="0"
       refX="0"
       id="Arrow1Mend"
       style="overflow:visible"
       inkscape:isstock="true"><path
         id="path4687"
         d="M 0,0 5,-5 -12.5,0 5,5 0,0 Z"
         style="fill:#000000;fill-opacity:1;fill-rule:evenodd;stroke:#000000;stroke-width:1pt;stroke-opacity:1"
         transform="matrix(-0.4,0,0,-0.4,-4,0)"
         inkscape:connector-curvature="0" /></marker><inkscape:path-effect
       effect="spiro"
       id="path-effect4672"
       is_visible="true" /><inkscape:path-effect
       effect="spiro"
       id="path-effect4668"
       is_visible="true" /><inkscape:path-effect
       is_visible="true"
       id="path-effect4633"
       effect="spiro" /><inkscape:path-effect
       effect="spiro"
       id="path-effect4367"
       is_visible="true" /><clipPath
       id="clipPath4761"
       clipPathUnits="userSpaceOnUse"><path
         inkscape:connector-curvature="0"
         id="path4763"
         d="M 0,0 267,0 267,90 0,90 0,0 Z" /></clipPath></defs><sodipodi:namedview
     pagecolor="#ffffff"
     bordercolor="#666666"
     borderopacity="1"
     objecttolerance="10"
     gridtolerance="10"
     guidetolerance="10"
     inkscape:pageopacity="0"
     inkscape:pageshadow="2"
     inkscape:window-width="2017"
     inkscape:window-height="1166"
     id="namedview4"
     showgrid="false"
     inkscape:zoom="0.50889488"
     inkscape:cx="1022.394"
     inkscape:cy="306.54661"
     inkscape:window-x="0"
     inkscape:window-y="115"
     inkscape:window-maximized="0"
     inkscape:current-layer="layer1"
     showguides="true"
     inkscape:guide-bbox="true" /><g
     id="g10"
     inkscape:groupmode="layer"
     inkscape:label="Figure"
     transform="matrix(1.25,0,0,-1.25,0,450)"><g
       id="g4755"
       transform="translate(1169.7161,777.17373)" /></g><g
     inkscape:groupmode="layer"
     id="layer2"
     inkscape:label="Inset"
     transform="translate(0,-1450.5)"><flowRoot
       xml:space="preserve"
       id="flowRoot4369"
       style="font-style:normal;font-weight:normal;font-size:40px;line-height:125%;font-family:sans-serif;letter-spacing:0px;word-spacing:0px;fill:#000000;fill-opacity:1;stroke:none;stroke-width:1px;stroke-linecap:butt;stroke-linejoin:miter;stroke-opacity:1"
       inkscape:transform-center-x="-345.84746"
       inkscape:transform-center-y="47.161017"
       transform="translate(0,-17.685381)"><flowRegion
         id="flowRegion4371"><rect
           id="rect4373"
           width="56.98624"
           height="58.951252"
           x="506.98093"
           y="963.1748" /></flowRegion><flowPara
         id="flowPara4375"
         style="font-style:normal;font-variant:normal;font-weight:normal;font-stretch:normal;font-size:40px;line-height:125%;font-family:Arial;-inkscape-font-specification:'Arial, Normal';text-align:start;writing-mode:lr-tb;text-anchor:start;stroke:#ff0f0f;stroke-opacity:1" /></flowRoot></g><g
     inkscape:groupmode="layer"
     id="layer1"
     inkscape:label="Labels"
     transform="translate(0,-1450.5)"><g
       id="g4447"
       transform="translate(-80.601695,123.83263)"><flowRoot
         transform="translate(143.93339,657.26907)"
         style="font-style:normal;font-variant:normal;font-weight:normal;font-stretch:normal;font-size:40px;line-height:125%;font-family:Arial;-inkscape-font-specification:'Arial, Normal';text-align:start;letter-spacing:0px;word-spacing:0px;writing-mode:lr-tb;text-anchor:start;fill:#000000;fill-opacity:1;stroke:none;stroke-width:1px;stroke-linecap:butt;stroke-linejoin:miter;stroke-opacity:1"
         id="flowRoot5292"
         xml:space="preserve"><flowRegion
           id="flowRegion5294"><rect
             style="font-style:normal;font-variant:normal;font-weight:normal;font-stretch:normal;font-size:40px;line-height:125%;font-family:Arial;-inkscape-font-specification:'Arial, Normal';text-align:start;writing-mode:lr-tb;text-anchor:start"
             y="1056.5519"
             x="235.80508"
             height="64.846359"
             width="72.706573"
             id="rect5296" /></flowRegion><flowPara
           id="flowPara5298">(a)</flowPara></flowRoot><flowRoot
         xml:space="preserve"
         id="flowRoot5300"
         style="font-style:normal;font-variant:normal;font-weight:normal;font-stretch:normal;font-size:40px;line-height:125%;font-family:Arial;-inkscape-font-specification:'Arial, Normal';text-align:start;letter-spacing:0px;word-spacing:0px;writing-mode:lr-tb;text-anchor:start;fill:#000000;fill-opacity:1;stroke:none;stroke-width:1px;stroke-linecap:butt;stroke-linejoin:miter;stroke-opacity:1"
         transform="translate(845.74862,657.26907)"><flowRegion
           id="flowRegion5302"><rect
             style="font-style:normal;font-variant:normal;font-weight:normal;font-stretch:normal;font-size:40px;line-height:125%;font-family:Arial;-inkscape-font-specification:'Arial, Normal';text-align:start;writing-mode:lr-tb;text-anchor:start"
             id="rect5304"
             width="72.706573"
             height="64.846359"
             x="235.80508"
             y="1056.5519" /></flowRegion><flowPara
           id="flowPara5306">(b)</flowPara></flowRoot><g
         id="g4317"><g
           id="g5190"
           transform="translate(64.742512,-186.43432)"><path
             inkscape:connector-curvature="0"
             inkscape:original-d="m 452.09958,1659.8322 c 0,58.9513 0,56.9862 0,56.9862"
             inkscape:path-effect="#path-effect4668"
             id="path4666"
             d="m 452.09958,1659.8322 0,56.9862"
             style="fill:none;fill-rule:evenodd;stroke:#000000;stroke-width:5;stroke-linecap:butt;stroke-linejoin:miter;stroke-miterlimit:4;stroke-dasharray:none;stroke-opacity:1;marker-end:url(#Arrow1Send)" /><path
             style="fill:none;fill-rule:evenodd;stroke:#000000;stroke-width:5;stroke-linecap:butt;stroke-linejoin:miter;stroke-miterlimit:4;stroke-dasharray:none;stroke-opacity:1;marker-start:url(#Arrow1Sstart)"
             d="m 469.64513,1668.6072 0,56.9862"
             id="path4986"
             inkscape:path-effect="#path-effect4988"
             inkscape:original-d="m 469.64513,1668.6072 c 0,58.9513 0,56.9862 0,56.9862"
             inkscape:connector-curvature="0" /></g><path
           inkscape:connector-curvature="0"
           id="path4293"
           d="m 101.88339,1523.3867 c 0,174.8888 0,174.8888 0,174.8888 l 0,0 0,0"
           style="fill:#0074ae;fill-opacity:1;fill-rule:evenodd;stroke:#00247c;stroke-width:7;stroke-linecap:butt;stroke-linejoin:miter;stroke-miterlimit:4;stroke-dasharray:none;stroke-opacity:1" /><path
           sodipodi:nodetypes="csssssssssc"
           inkscape:connector-curvature="0"
           inkscape:original-d="m 99.918343,1608.1543 c 0,0 36.934037,1.2587 65.471887,-8.9197 28.53786,-10.1784 21.16895,-29.8288 34.74527,-28.4162 36.90025,3.8397 59.55244,59.6563 90.39195,76.6368 28.74093,15.8249 41.65313,-30.4269 60.91631,-56.9863 13.2801,-18.3102 63.78129,38.3125 88.42692,39.3009 32.23146,1.2925 57.34613,-32.6622 92.41542,-54.6028 40.07121,-25.0698 20.34194,89.5367 60.85787,84.0784 49.09016,-6.6135 36.85081,-26.6402 23.58052,-60.9164 -12.93789,-33.4176 9.9916,-24.2909 27.51059,-29.4756 22.89182,-6.7748 64.84644,27.5106 64.84644,27.5106"
           inkscape:path-effect="#path-effect4297"
           id="path4295"
           d="m 99.918343,1608.1543 c 10.462687,5.2407 22.520237,7.2421 34.114977,5.6624 11.59473,-1.5796 22.67748,-6.7335 31.35691,-14.5821 5.64455,-5.1042 10.23701,-11.2543 15.56868,-16.6845 5.33167,-5.4303 11.70717,-10.275 19.17659,-11.7317 5.2229,-1.0186 10.71392,-0.2919 15.6577,1.6766 4.94378,1.9686 9.35657,5.1418 13.10447,8.9193 7.49579,7.555 12.27414,17.3222 16.84728,26.9322 4.57315,9.6099 9.18952,19.427 16.45555,27.2033 3.63301,3.8881 7.91734,7.2197 12.76766,9.4085 4.85031,2.1887 10.28475,3.2008 15.55929,2.4969 7.10799,-0.9485 13.53759,-4.9406 18.60977,-10.0098 5.07217,-5.0691 8.94282,-11.1936 12.66409,-17.3234 3.72126,-6.1299 7.36677,-12.3622 12.08363,-17.7636 4.71685,-5.4013 10.64447,-9.9882 17.55882,-11.8895 8.05643,-2.2154 16.79687,-0.5827 24.37134,2.9445 7.57447,3.5273 14.164,8.8332 20.52473,14.2513 6.36073,5.418 12.62352,11.0356 19.78656,15.3373 7.16304,4.3017 15.40303,7.2549 23.74429,6.7678 9.44021,-0.5513 18.17096,-5.4577 25.25593,-11.7207 7.08497,-6.2629 12.80701,-13.8831 18.88508,-21.1273 6.07806,-7.2442 12.70404,-14.2751 20.98093,-18.8484 4.13844,-2.2866 8.66422,-3.926 13.35426,-4.5251 4.69004,-0.599 9.54815,-0.1345 13.93922,1.6187 4.40835,1.7601 8.25668,4.7798 11.31052,8.4138 3.05385,3.6339 5.33748,7.8706 7.05517,12.2957 3.4354,8.8501 4.6302,18.3771 6.54791,27.675 1.91771,9.2978 4.72913,18.7316 10.77437,26.0515 3.02262,3.66 6.83813,6.7179 11.22508,8.5307 4.38694,1.8129 9.35785,2.3329 13.94482,1.1117 5.58981,-1.4882 10.30955,-5.4737 13.46398,-10.3225 3.15443,-4.8487 4.85876,-10.5159 5.80164,-16.223 1.88576,-11.4143 0.89619,-23.3185 4.3149,-34.3709 4.10436,-13.269 14.63905,-24.2568 27.51059,-29.4756 12.08787,-4.9011 26.1214,-4.7886 38.12916,0.3056 12.00777,5.0942 21.84112,15.107 26.71728,27.205"
           style="fill:none;fill-rule:evenodd;stroke:#006bc8;stroke-width:4;stroke-linecap:butt;stroke-linejoin:miter;stroke-miterlimit:4;stroke-dasharray:none;stroke-opacity:1" /><flowRoot
           xml:space="preserve"
           id="flowRoot4299"
           style="font-style:normal;font-weight:normal;font-size:40px;line-height:125%;font-family:sans-serif;letter-spacing:0px;word-spacing:0px;fill:#ff0000;fill-opacity:1;stroke:#cf0000;stroke-width:1px;stroke-linecap:butt;stroke-linejoin:miter;stroke-opacity:1"
           transform="translate(-228.41853,666.04447)"><flowRegion
             id="flowRegion4301"><rect
               id="rect4303"
               width="68.776482"
               height="66.81144"
               x="499.12076"
               y="951.38452"
               style="fill:#ff0000;fill-opacity:1;stroke:#cf0000;stroke-opacity:1" /></flowRegion><flowPara
             id="flowPara4305"
             style="font-style:normal;font-variant:normal;font-weight:normal;font-stretch:normal;font-size:45px;line-height:125%;font-family:Arial;-inkscape-font-specification:'Arial, Normal';text-align:start;writing-mode:lr-tb;text-anchor:start;fill:#ff0000;fill-opacity:1;stroke:#cf0000;stroke-opacity:1">Y</flowPara></flowRoot><flowRoot
           xml:space="preserve"
           id="flowRoot4307"
           style="font-style:normal;font-weight:normal;font-size:40px;line-height:125%;font-family:sans-serif;letter-spacing:0px;word-spacing:0px;fill:#ff0000;fill-opacity:1;stroke:#cf0000;stroke-width:1px;stroke-linecap:butt;stroke-linejoin:miter;stroke-opacity:1"
           transform="translate(11.596312,591.44279)"><flowRegion
             id="flowRegion4309"><rect
               id="rect4311"
               width="68.776482"
               height="66.81144"
               x="499.12076"
               y="951.38452"
               style="fill:#ff0000;fill-opacity:1;stroke:#cf0000;stroke-opacity:1" /></flowRegion><flowPara
             id="flowPara4313"
             style="font-style:normal;font-variant:normal;font-weight:normal;font-stretch:normal;font-size:45px;line-height:125%;font-family:Arial;-inkscape-font-specification:'Arial, Normal';text-align:start;writing-mode:lr-tb;text-anchor:start;fill:#ff0000;fill-opacity:1;stroke:#cf0000;stroke-opacity:1">Y</flowPara></flowRoot><circle
           r="47.161015"
           cy="1411.6589"
           cx="525.61487"
           id="circle4315"
           style="fill:#ff9600;fill-opacity:1;stroke:#ffffff;stroke-width:2;stroke-linecap:butt;stroke-linejoin:miter;stroke-miterlimit:4;stroke-dasharray:none;stroke-dashoffset:0;stroke-opacity:1" /></g><g
         transform="translate(0,-7.8602)"
         id="g4423"><g
           transform="translate(526.52747,-105.86758)"
           id="g4335"><path
             style="fill:none;fill-rule:evenodd;stroke:#000000;stroke-width:5;stroke-linecap:butt;stroke-linejoin:miter;stroke-miterlimit:4;stroke-dasharray:none;stroke-opacity:1;marker-end:url(#Arrow1Send)"
             d="m 452.09958,1659.8322 0,56.9862"
             id="path4337"
             inkscape:path-effect="#path-effect4668"
             inkscape:original-d="m 452.09958,1659.8322 c 0,58.9513 0,56.9862 0,56.9862"
             inkscape:connector-curvature="0" /><path
             inkscape:connector-curvature="0"
             inkscape:original-d="m 469.64513,1668.6072 c 0,58.9513 0,56.9862 0,56.9862"
             inkscape:path-effect="#path-effect4988"
             id="path4339"
             d="m 469.64513,1668.6072 0,56.9862"
             style="fill:none;fill-rule:evenodd;stroke:#000000;stroke-width:5;stroke-linecap:butt;stroke-linejoin:miter;stroke-miterlimit:4;stroke-dasharray:none;stroke-opacity:1;marker-start:url(#Arrow1Sstart)" /></g><path
           style="fill:#0074ae;fill-opacity:1;fill-rule:evenodd;stroke:#00247c;stroke-width:7;stroke-linecap:butt;stroke-linejoin:miter;stroke-miterlimit:4;stroke-dasharray:none;stroke-opacity:1"
           d="m 803.40352,1531.2469 c 0,174.8888 0,174.8888 0,174.8888 l 0,0 0,0"
           id="path4341"
           inkscape:connector-curvature="0" /><path
           style="fill:none;fill-rule:evenodd;stroke:#006bc8;stroke-width:4;stroke-linecap:butt;stroke-linejoin:miter;stroke-miterlimit:4;stroke-dasharray:none;stroke-opacity:1"
           d="m 801.43847,1616.0145 c 10.48049,5.1739 22.51978,7.1364 34.10083,5.5586 11.58105,-1.5777 22.6566,-6.6893 31.37106,-14.4783 5.66743,-5.0655 10.29995,-11.1714 15.6379,-16.5831 5.33795,-5.4116 11.67039,-10.2612 19.10737,-11.8331 5.1682,-1.0924 10.62369,-0.5157 15.59212,1.2782 4.96843,1.7939 9.46303,4.7715 13.329,8.3712 7.73194,7.1994 12.87883,16.6915 17.65578,26.1146 4.77695,9.4231 9.40929,19.0919 16.40323,27.0102 3.49697,3.9591 7.5769,7.4464 12.23065,9.9456 4.65375,2.4992 9.89925,3.9866 15.18117,3.917 6.60546,-0.087 13.00232,-2.5905 18.58182,-6.1272 5.5796,-3.5366 10.4381,-8.0834 15.2032,-12.6587 4.7652,-4.5752 9.5006,-9.2301 14.9016,-13.0339 5.401,-3.8037 11.559,-6.7528 18.1248,-7.4811 7.1474,-0.7928 14.3461,1.0641 21.036,3.702 6.69,2.638 13.0537,6.0313 19.6263,8.9492 6.5727,2.918 13.3886,5.3383 20.4326,6.7862 7.044,1.4479 14.2517,1.8818 21.4369,2.1781 l 190.6091,7.8601 c 4.2936,0.1771 8.6775,0.2269 12.7763,-1.064 4.0988,-1.2908 7.7769,-3.9123 10.2571,-7.4216 2.4803,-3.5093 3.7372,-7.7664 4.204,-12.0383 0.4667,-4.2718 0.2071,-8.5851 0.2732,-12.8819 0.099,-6.4455 0.9856,-12.9563 3.4617,-18.9081 2.4762,-5.9518 6.6437,-11.3309 12.2586,-14.4976 3.9717,-2.24 8.5911,-3.3156 13.1438,-3.0604 4.5527,0.2551 9.023,1.8401 12.7196,4.5099 3.6966,2.6697 6.6067,6.415 8.2803,10.6566 1.6736,4.2416 2.1049,8.9649 1.2272,13.4395"
           id="path4343"
           inkscape:path-effect="#path-effect4373"
           inkscape:original-d="m 801.43847,1616.0145 c 0,0 36.93404,1.2587 65.47189,-8.9197 28.53786,-10.1784 21.16895,-29.8288 34.74527,-28.4162 36.90025,3.8397 59.55244,59.6563 90.39195,76.6368 28.74092,15.8249 47.54822,-12.7415 66.81142,-39.3009 13.2801,-18.3102 57.8862,20.6271 82.5318,21.6155 l 190.6091,7.8601 c 49.4916,2.0409 40.7809,0.8704 27.5106,-33.4058 -12.9379,-33.4176 -1.7987,-28.221 15.7203,-33.4057 22.8918,-6.7748 35.3709,25.5456 35.3709,25.5456"
           inkscape:connector-curvature="0"
           sodipodi:nodetypes="csssscccsc" /><flowRoot
           transform="translate(473.1016,673.90464)"
           style="font-style:normal;font-weight:normal;font-size:40px;line-height:125%;font-family:sans-serif;letter-spacing:0px;word-spacing:0px;fill:#ff0000;fill-opacity:1;stroke:#cf0000;stroke-width:1px;stroke-linecap:butt;stroke-linejoin:miter;stroke-opacity:1"
           id="flowRoot4345"
           xml:space="preserve"><flowRegion
             id="flowRegion4347"><rect
               style="fill:#ff0000;fill-opacity:1;stroke:#cf0000;stroke-opacity:1"
               y="951.38452"
               x="499.12076"
               height="66.81144"
               width="68.776482"
               id="rect4349" /></flowRegion><flowPara
             style="font-style:normal;font-variant:normal;font-weight:normal;font-stretch:normal;font-size:45px;line-height:125%;font-family:Arial;-inkscape-font-specification:'Arial, Normal';text-align:start;writing-mode:lr-tb;text-anchor:start;fill:#ff0000;fill-opacity:1;stroke:#cf0000;stroke-opacity:1"
             id="flowPara4351">Y</flowPara></flowRoot><flowRoot
           transform="translate(726.87174,660.25423)"
           style="font-style:normal;font-weight:normal;font-size:40px;line-height:125%;font-family:sans-serif;letter-spacing:0px;word-spacing:0px;fill:#ff0000;fill-opacity:1;stroke:#cf0000;stroke-width:1px;stroke-linecap:butt;stroke-linejoin:miter;stroke-opacity:1"
           id="flowRoot4353"
           xml:space="preserve"><flowRegion
             id="flowRegion4355"><rect
               style="fill:#ff0000;fill-opacity:1;stroke:#cf0000;stroke-opacity:1"
               y="951.38452"
               x="499.12076"
               height="66.81144"
               width="68.776482"
               id="rect4357" /></flowRegion><flowPara
             style="font-style:normal;font-variant:normal;font-weight:normal;font-stretch:normal;font-size:45px;line-height:125%;font-family:Arial;-inkscape-font-specification:'Arial, Normal';text-align:start;writing-mode:lr-tb;text-anchor:start;fill:#ff0000;fill-opacity:1;stroke:#cf0000;stroke-opacity:1"
             id="flowPara4359">Y</flowPara></flowRoot><circle
           style="fill:#ff9600;fill-opacity:1;stroke:#ffffff;stroke-width:2;stroke-linecap:butt;stroke-linejoin:miter;stroke-miterlimit:4;stroke-dasharray:none;stroke-dashoffset:0;stroke-opacity:1"
           id="circle4361"
           cx="987.39984"
           cy="1490.2607"
           r="47.161015" /><path
           style="fill:none;fill-rule:evenodd;stroke:#000000;stroke-width:1px;stroke-linecap:butt;stroke-linejoin:miter;stroke-opacity:1"
           d="m 1239.9417,1566.4428 0,0 z"
           id="path4379"
           inkscape:path-effect="#path-effect4381"
           inkscape:original-d="m 1239.9417,1566.4428 c 1.9651,72.7066 0,0 0,0 z"
           inkscape:connector-curvature="0" /><g
           id="g4415"
           transform="translate(1.9650424,473.57521)"><circle
             r="28.493113"
             cy="1093.8502"
             cx="1238.9221"
             id="path4387"
             style="fill:none;fill-opacity:1;stroke:#000000;stroke-width:4;stroke-linecap:butt;stroke-linejoin:miter;stroke-miterlimit:4;stroke-dasharray:none;stroke-dashoffset:0;stroke-opacity:1" /><path
             sodipodi:nodetypes="cc"
             inkscape:connector-curvature="0"
             inkscape:original-d="m 1238.9221,1124.0985 0,45.196"
             inkscape:path-effect="#path-effect4391"
             id="path4389"
             d="m 1238.9221,1124.0985 0,45.196"
             style="fill:none;fill-rule:evenodd;stroke:#000000;stroke-width:4;stroke-linecap:butt;stroke-linejoin:miter;stroke-miterlimit:4;stroke-dasharray:none;stroke-opacity:1" /><flowRoot
             transform="translate(38.236821,818.28406)"
             style="font-style:normal;font-weight:normal;font-size:40px;line-height:125%;font-family:sans-serif;letter-spacing:0px;word-spacing:0px;fill:#000000;fill-opacity:1;stroke:none;stroke-width:1px;stroke-linecap:butt;stroke-linejoin:miter;stroke-opacity:1"
             id="flowRoot4393"
             xml:space="preserve"><flowRegion
               id="flowRegion4395"><rect
                 y="247.38878"
                 x="1184.9205"
                 height="56.986229"
                 width="53.056145"
                 id="rect4397" /></flowRegion><flowPara
               style="font-style:normal;font-variant:normal;font-weight:normal;font-stretch:normal;font-size:45px;line-height:125%;font-family:Arial;-inkscape-font-specification:'Arial, Normal';text-align:start;writing-mode:lr-tb;text-anchor:start"
               id="flowPara4399">P</flowPara></flowRoot></g></g></g></g></svg>